<svg xmlns="http://www.w3.org/2000/svg" width="1920" height="536" fill="none" viewBox="0 0 1920 536"><g clip-path="url(#clip0)"><rect width="1920" height="536" fill="#fff"/><rect width="1920" height="536" fill="#003A0C"/><path fill="#004B10" fill-rule="evenodd" d="M306.534 -0.500717C303.039 3.36441 300.417 7.19838 299.019 9.3934C298.176 10.7181 296.727 11.1489 295.531 10.9789C294.35 10.8111 293.135 10.0287 292.632 8.63874C289.608 0.271444 285.593 -4.74275 281.442 -7.68765C277.293 -10.6318 272.804 -11.652 268.581 -11.6798C264.335 -11.7078 260.401 -10.7287 257.497 -9.71777C256.053 -9.21514 254.885 -8.71209 254.086 -8.33911C253.688 -8.15286 253.382 -7.99975 253.182 -7.89633C253.116 -7.86241 253.062 -7.83387 253.02 -7.8113C249.296 -5.09687 246.758 -0.686563 245.132 3.30429C244.324 5.28714 243.772 7.09058 243.423 8.39533C243.249 9.04619 243.126 9.5689 243.048 9.92284C243.009 10.0997 242.982 10.2341 242.964 10.3209C242.956 10.3643 242.949 10.3958 242.946 10.4148L242.942 10.4332L242.942 10.4343C241.81 16.6637 243.216 23.0259 245.011 27.9604C245.9 30.4054 246.864 32.4444 247.603 33.8672C247.972 34.5774 248.283 35.1308 248.498 35.5009C248.606 35.6859 248.69 35.8248 248.744 35.9143C248.744 35.9146 248.744 35.9141 248.744 35.9143L275.935 69.008C277.811 71.292 276.187 74.7299 273.231 74.7299H224.721L219.311 46.3626L201.855 150.625C201.277 154.082 196.252 153.91 195.911 150.422L183.002 18.4688L165.311 103.748C164.659 106.893 160.189 106.952 159.454 103.826L152.606 74.7299H113.505V69.7299H154.19C155.582 69.7299 156.791 70.6876 157.11 72.0427L162.251 93.8858L180.776 4.58565C181.474 1.2201 186.364 1.48186 186.699 4.90293L199.417 134.908L216.224 34.5196C216.777 31.218 221.503 31.1648 222.13 34.453L228.857 69.7299H270.057L244.679 38.8433L244.598 38.7155L246.707 37.3733C244.598 38.7155 244.598 38.7148 244.597 38.7141L244.596 38.7125L244.585 38.6958L244.561 38.6561C244.54 38.6231 244.511 38.5769 244.476 38.518C244.404 38.4003 244.302 38.2316 244.177 38.0154C243.925 37.5831 243.575 36.9597 243.166 36.1722C242.349 34.5995 241.29 32.3592 240.312 29.6691C238.372 24.3337 236.666 17.0026 238.023 9.53874L240.463 9.98241C238.023 9.53874 238.023 9.53804 238.023 9.5373L238.024 9.53553L238.024 9.53107L238.027 9.51838L238.034 9.47821C238.041 9.44494 238.05 9.39877 238.061 9.34036C238.085 9.22356 238.119 9.05768 238.165 8.84795C238.257 8.42871 238.397 7.83297 238.593 7.10279C238.983 5.64545 239.598 3.63644 240.502 1.41781C242.282 -2.95159 245.309 -8.44863 250.234 -11.9665L250.344 -12.0452L250.462 -12.1115L251.687 -9.93215C250.462 -12.1115 250.463 -12.1122 250.464 -12.113L250.468 -12.1148L250.476 -12.1197L250.502 -12.134C250.523 -12.1455 250.551 -12.161 250.587 -12.1802C250.658 -12.2187 250.758 -12.272 250.886 -12.338C251.141 -12.47 251.507 -12.653 251.971 -12.8697C252.899 -13.3027 254.225 -13.8729 255.853 -14.4398C259.094 -15.5679 263.616 -16.7126 268.614 -16.6797C273.637 -16.6466 279.183 -15.4212 284.336 -11.7656C288.988 -8.46464 293.154 -3.2999 296.343 4.38112C297.921 2.08762 300.125 -0.867956 302.825 -3.85429C306.551 -7.97489 311.339 -12.2848 316.85 -14.9304C322.42 -17.6042 328.834 -18.6156 335.521 -15.888C342.122 -13.1957 348.584 -7.02272 354.697 3.77463L354.772 3.90744L354.831 4.04841L352.522 5.00643C354.831 4.04841 354.832 4.04977 354.832 4.05119L354.833 4.0543L354.836 4.06155L354.844 4.08009L354.865 4.13326C354.882 4.1758 354.904 4.23252 354.93 4.30305C354.982 4.44411 355.052 4.64059 355.133 4.88973C355.296 5.38783 355.504 6.09756 355.708 6.99672C356.117 8.79424 356.514 11.356 356.5 14.5009C356.472 20.8168 354.786 29.4058 348.36 38.7862L348.354 38.7947L305.495 100.271L301.393 97.4114L344.235 35.9604C344.237 35.9572 344.239 35.954 344.241 35.9509C350.05 27.4684 351.476 19.8775 351.5 14.4787C351.512 11.7653 351.169 9.58534 350.833 8.10576C350.665 7.36636 350.498 6.80368 350.379 6.43903C350.328 6.28021 350.285 6.15917 350.255 6.07768C344.468 -4.09031 338.767 -9.16433 333.633 -11.2583C328.558 -13.328 323.643 -12.6447 319.014 -10.4229C314.327 -8.17284 310.047 -4.38631 306.534 -0.500717Z" clip-rule="evenodd"/><path fill="#004B10" d="M310.106 95.8062C310.106 93.056 307.876 90.8266 305.126 90.8266C302.376 90.8266 300.146 93.056 300.146 95.8062C300.146 98.5563 302.376 100.786 305.126 100.786C307.876 100.786 310.106 98.5563 310.106 95.8062Z"/><path fill="#004B10" d="M119.959 72.5575C119.959 69.8074 117.73 67.578 114.98 67.578C112.229 67.578 110 69.8074 110 72.5575C110 75.3077 112.229 77.5371 114.98 77.5371C117.73 77.5371 119.959 75.3077 119.959 72.5575Z"/><path fill="#004B10" fill-rule="evenodd" d="M636.534 -0.500717C633.039 3.36441 630.417 7.19838 629.019 9.3934C628.176 10.7181 626.727 11.1489 625.531 10.9789C624.35 10.8111 623.135 10.0287 622.632 8.63874C619.608 0.271444 615.593 -4.74275 611.442 -7.68765C607.293 -10.6318 602.804 -11.652 598.581 -11.6798C594.335 -11.7078 590.401 -10.7287 587.497 -9.71777C586.053 -9.21514 584.885 -8.71209 584.086 -8.33911C583.688 -8.15286 583.382 -7.99975 583.182 -7.89633C583.116 -7.86241 583.062 -7.83387 583.02 -7.8113C579.296 -5.09687 576.758 -0.686563 575.132 3.30429C574.324 5.28714 573.772 7.09058 573.423 8.39533C573.249 9.04619 573.126 9.5689 573.048 9.92284C573.009 10.0997 572.982 10.2341 572.964 10.3209C572.956 10.3643 572.949 10.3958 572.946 10.4148L572.942 10.4332L572.942 10.4343C571.81 16.6637 573.216 23.0259 575.011 27.9604C575.9 30.4054 576.864 32.4444 577.603 33.8672C577.972 34.5774 578.283 35.1308 578.498 35.5009C578.606 35.6859 578.69 35.8248 578.744 35.9143C578.744 35.9146 578.744 35.9141 578.744 35.9143L605.935 69.008C607.811 71.292 606.187 74.7299 603.23 74.7299H554.721L549.311 46.3626L531.855 150.625C531.277 154.082 526.252 153.91 525.911 150.422L513.002 18.4688L495.311 103.748C494.659 106.893 490.189 106.952 489.454 103.826L482.606 74.7299H443.505V69.7299H484.19C485.582 69.7299 486.791 70.6876 487.11 72.0427L492.251 93.8858L510.776 4.58565C511.474 1.2201 516.364 1.48186 516.699 4.90293L529.417 134.908L546.224 34.5196C546.777 31.218 551.503 31.1648 552.13 34.453L558.857 69.7299H600.057L574.679 38.8433L574.598 38.7155L576.707 37.3733C574.598 38.7155 574.598 38.7148 574.597 38.7141L574.596 38.7125L574.585 38.6958L574.561 38.6561C574.54 38.6231 574.511 38.5769 574.476 38.518C574.404 38.4003 574.302 38.2316 574.177 38.0154C573.925 37.5831 573.575 36.9597 573.166 36.1722C572.349 34.5995 571.29 32.3592 570.312 29.6691C568.372 24.3337 566.666 17.0026 568.023 9.53874L570.463 9.98241C568.023 9.53874 568.023 9.53804 568.023 9.5373L568.024 9.53553L568.024 9.53107L568.027 9.51838L568.034 9.47821C568.041 9.44494 568.05 9.39877 568.061 9.34036C568.085 9.22356 568.119 9.05768 568.165 8.84795C568.257 8.42871 568.397 7.83297 568.593 7.10279C568.983 5.64545 569.598 3.63644 570.502 1.41781C572.282 -2.95159 575.309 -8.44863 580.234 -11.9665L580.344 -12.0452L580.462 -12.1115L581.687 -9.93215C580.462 -12.1115 580.463 -12.1122 580.464 -12.113L580.468 -12.1148L580.476 -12.1197L580.502 -12.134C580.523 -12.1455 580.551 -12.161 580.587 -12.1802C580.658 -12.2187 580.758 -12.272 580.886 -12.338C581.141 -12.47 581.507 -12.653 581.971 -12.8697C582.899 -13.3027 584.225 -13.8729 585.853 -14.4398C589.094 -15.5679 593.616 -16.7126 598.614 -16.6797C603.637 -16.6466 609.183 -15.4212 614.336 -11.7656C618.988 -8.46464 623.154 -3.2999 626.343 4.38112C627.921 2.08762 630.125 -0.867956 632.825 -3.85429C636.551 -7.97489 641.339 -12.2848 646.85 -14.9304C652.42 -17.6042 658.834 -18.6156 665.521 -15.888C672.122 -13.1957 678.584 -7.02272 684.697 3.77463L684.772 3.90744L684.831 4.04841L682.522 5.00643C684.831 4.04841 684.832 4.04977 684.832 4.05119L684.833 4.0543L684.836 4.06155L684.844 4.08009L684.865 4.13326C684.882 4.1758 684.904 4.23252 684.93 4.30305C684.982 4.44411 685.052 4.64059 685.133 4.88973C685.296 5.38783 685.504 6.09756 685.708 6.99672C686.117 8.79424 686.514 11.356 686.5 14.5009C686.472 20.8168 684.786 29.4058 678.36 38.7862L678.354 38.7947L635.495 100.271L631.393 97.4114L674.235 35.9604C674.237 35.9572 674.239 35.954 674.241 35.9509C680.05 27.4684 681.476 19.8775 681.5 14.4787C681.512 11.7653 681.169 9.58534 680.833 8.10576C680.665 7.36636 680.498 6.80368 680.379 6.43903C680.328 6.28021 680.285 6.15917 680.255 6.07768C674.468 -4.09031 668.767 -9.16433 663.633 -11.2583C658.558 -13.328 653.643 -12.6447 649.014 -10.4229C644.327 -8.17284 640.047 -4.38631 636.534 -0.500717Z" clip-rule="evenodd"/><path fill="#004B10" d="M640.106 95.8062C640.106 93.056 637.876 90.8266 635.126 90.8266C632.376 90.8266 630.146 93.056 630.146 95.8062C630.146 98.5563 632.376 100.786 635.126 100.786C637.876 100.786 640.106 98.5563 640.106 95.8062Z"/><path fill="#004B10" d="M449.959 72.5575C449.959 69.8074 447.73 67.578 444.98 67.578C442.229 67.578 440 69.8074 440 72.5575C440 75.3077 442.229 77.5371 444.98 77.5371C447.73 77.5371 449.959 75.3077 449.959 72.5575Z"/><path fill="#004B10" fill-rule="evenodd" d="M986.534 -0.500717C983.039 3.36441 980.417 7.19838 979.019 9.3934C978.176 10.7181 976.727 11.1489 975.531 10.9789C974.35 10.8111 973.135 10.0287 972.632 8.63874C969.608 0.271444 965.593 -4.74275 961.442 -7.68765C957.293 -10.6318 952.804 -11.652 948.581 -11.6798C944.335 -11.7078 940.401 -10.7287 937.497 -9.71777C936.053 -9.21514 934.885 -8.71209 934.086 -8.33911C933.688 -8.15286 933.382 -7.99975 933.182 -7.89633C933.116 -7.86241 933.062 -7.83387 933.02 -7.8113C929.296 -5.09687 926.758 -0.686563 925.132 3.30429C924.324 5.28714 923.772 7.09058 923.423 8.39533C923.249 9.04619 923.126 9.5689 923.048 9.92284C923.009 10.0997 922.982 10.2341 922.964 10.3209C922.956 10.3643 922.949 10.3958 922.946 10.4148L922.942 10.4332L922.942 10.4343C921.81 16.6637 923.216 23.0259 925.011 27.9604C925.9 30.4054 926.864 32.4444 927.603 33.8672C927.972 34.5774 928.283 35.1308 928.498 35.5009C928.606 35.6859 928.69 35.8248 928.744 35.9143C928.744 35.9146 928.744 35.9141 928.744 35.9143L955.935 69.008C957.811 71.292 956.187 74.7299 953.23 74.7299H904.721L899.311 46.3626L881.855 150.625C881.277 154.082 876.252 153.91 875.911 150.422L863.002 18.4688L845.311 103.748C844.659 106.893 840.189 106.952 839.454 103.826L832.606 74.7299H793.505V69.7299H834.19C835.582 69.7299 836.791 70.6876 837.11 72.0427L842.251 93.8858L860.776 4.58565C861.474 1.2201 866.364 1.48186 866.699 4.90293L879.417 134.908L896.224 34.5196C896.777 31.218 901.503 31.1648 902.13 34.453L908.857 69.7299H950.057L924.679 38.8433L924.598 38.7155L926.707 37.3733C924.598 38.7155 924.598 38.7148 924.597 38.7141L924.596 38.7125L924.585 38.6958L924.561 38.6561C924.54 38.6231 924.511 38.5769 924.476 38.518C924.404 38.4003 924.302 38.2316 924.177 38.0154C923.925 37.5831 923.575 36.9597 923.166 36.1722C922.349 34.5995 921.29 32.3592 920.312 29.6691C918.372 24.3337 916.666 17.0026 918.023 9.53874L920.463 9.98241C918.023 9.53874 918.023 9.53804 918.023 9.5373L918.024 9.53553L918.024 9.53107L918.027 9.51838L918.034 9.47821C918.041 9.44494 918.05 9.39877 918.061 9.34036C918.085 9.22356 918.119 9.05768 918.165 8.84795C918.257 8.42871 918.397 7.83297 918.593 7.10279C918.983 5.64545 919.598 3.63644 920.502 1.41781C922.282 -2.95159 925.309 -8.44863 930.234 -11.9665L930.344 -12.0452L930.462 -12.1115L931.687 -9.93215C930.462 -12.1115 930.463 -12.1122 930.464 -12.113L930.468 -12.1148L930.476 -12.1197L930.502 -12.134C930.523 -12.1455 930.551 -12.161 930.587 -12.1802C930.658 -12.2187 930.758 -12.272 930.886 -12.338C931.141 -12.47 931.507 -12.653 931.971 -12.8697C932.899 -13.3027 934.225 -13.8729 935.853 -14.4398C939.094 -15.5679 943.616 -16.7126 948.614 -16.6797C953.637 -16.6466 959.183 -15.4212 964.336 -11.7656C968.988 -8.46464 973.154 -3.2999 976.343 4.38112C977.921 2.08762 980.125 -0.867956 982.825 -3.85429C986.551 -7.97489 991.339 -12.2848 996.85 -14.9304C1002.42 -17.6042 1008.83 -18.6156 1015.52 -15.888C1022.12 -13.1957 1028.58 -7.02272 1034.7 3.77463L1034.77 3.90744L1034.83 4.04841L1032.52 5.00643C1034.83 4.04841 1034.83 4.04977 1034.83 4.05119L1034.83 4.0543L1034.84 4.06155L1034.84 4.08009L1034.87 4.13326C1034.88 4.1758 1034.9 4.23252 1034.93 4.30305C1034.98 4.44411 1035.05 4.64059 1035.13 4.88973C1035.3 5.38783 1035.5 6.09756 1035.71 6.99672C1036.12 8.79424 1036.51 11.356 1036.5 14.5009C1036.47 20.8168 1034.79 29.4058 1028.36 38.7862L1028.35 38.7947L985.495 100.271L981.393 97.4114L1024.23 35.9604C1024.24 35.9572 1024.24 35.954 1024.24 35.9509C1030.05 27.4684 1031.48 19.8775 1031.5 14.4787C1031.51 11.7653 1031.17 9.58534 1030.83 8.10576C1030.66 7.36636 1030.5 6.80368 1030.38 6.43903C1030.33 6.28021 1030.28 6.15917 1030.26 6.07768C1024.47 -4.09031 1018.77 -9.16433 1013.63 -11.2583C1008.56 -13.328 1003.64 -12.6447 999.014 -10.4229C994.327 -8.17284 990.047 -4.38631 986.534 -0.500717Z" clip-rule="evenodd"/><path fill="#004B10" d="M990.106 95.8062C990.106 93.056 987.876 90.8266 985.126 90.8266C982.376 90.8266 980.146 93.056 980.146 95.8062C980.146 98.5563 982.376 100.786 985.126 100.786C987.876 100.786 990.106 98.5563 990.106 95.8062Z"/><path fill="#004B10" d="M799.959 72.5575C799.959 69.8074 797.73 67.578 794.98 67.578C792.229 67.578 790 69.8074 790 72.5575C790 75.3077 792.229 77.5371 794.98 77.5371C797.73 77.5371 799.959 75.3077 799.959 72.5575Z"/><path fill="#004B10" fill-rule="evenodd" d="M1346.53 -0.500717C1343.04 3.36441 1340.42 7.19838 1339.02 9.3934C1338.18 10.7181 1336.73 11.1489 1335.53 10.9789C1334.35 10.8111 1333.13 10.0287 1332.63 8.63874C1329.61 0.271444 1325.59 -4.74275 1321.44 -7.68765C1317.29 -10.6318 1312.8 -11.652 1308.58 -11.6798C1304.33 -11.7078 1300.4 -10.7287 1297.5 -9.71777C1296.05 -9.21514 1294.89 -8.71209 1294.09 -8.33911C1293.69 -8.15286 1293.38 -7.99975 1293.18 -7.89633C1293.12 -7.86241 1293.06 -7.83387 1293.02 -7.8113C1289.3 -5.09687 1286.76 -0.686563 1285.13 3.30429C1284.32 5.28714 1283.77 7.09058 1283.42 8.39533C1283.25 9.04619 1283.13 9.5689 1283.05 9.92284C1283.01 10.0997 1282.98 10.2341 1282.96 10.3209C1282.96 10.3643 1282.95 10.3958 1282.95 10.4148L1282.94 10.4332L1282.94 10.4343C1281.81 16.6637 1283.22 23.0259 1285.01 27.9604C1285.9 30.4054 1286.86 32.4444 1287.6 33.8672C1287.97 34.5774 1288.28 35.1308 1288.5 35.5009C1288.61 35.6859 1288.69 35.8248 1288.74 35.9143C1288.74 35.9146 1288.74 35.9141 1288.74 35.9143L1315.93 69.008C1317.81 71.292 1316.19 74.7299 1313.23 74.7299H1264.72L1259.31 46.3626L1241.86 150.625C1241.28 154.082 1236.25 153.91 1235.91 150.422L1223 18.4688L1205.31 103.748C1204.66 106.893 1200.19 106.952 1199.45 103.826L1192.61 74.7299H1153.51V69.7299H1194.19C1195.58 69.7299 1196.79 70.6876 1197.11 72.0427L1202.25 93.8858L1220.78 4.58565C1221.47 1.2201 1226.36 1.48186 1226.7 4.90293L1239.42 134.908L1256.22 34.5196C1256.78 31.218 1261.5 31.1648 1262.13 34.453L1268.86 69.7299H1310.06L1284.68 38.8433L1284.6 38.7155L1286.71 37.3733C1284.6 38.7155 1284.6 38.7148 1284.6 38.7141L1284.6 38.7125L1284.59 38.6958L1284.56 38.6561C1284.54 38.6231 1284.51 38.5769 1284.48 38.518C1284.4 38.4003 1284.3 38.2316 1284.18 38.0154C1283.93 37.5831 1283.58 36.9597 1283.17 36.1722C1282.35 34.5995 1281.29 32.3592 1280.31 29.6691C1278.37 24.3337 1276.67 17.0026 1278.02 9.53874L1280.46 9.98241C1278.02 9.53874 1278.02 9.53804 1278.02 9.5373L1278.02 9.53553L1278.02 9.53107L1278.03 9.51838L1278.03 9.47821C1278.04 9.44494 1278.05 9.39877 1278.06 9.34036C1278.08 9.22356 1278.12 9.05768 1278.17 8.84795C1278.26 8.42871 1278.4 7.83297 1278.59 7.10279C1278.98 5.64545 1279.6 3.63644 1280.5 1.41781C1282.28 -2.95159 1285.31 -8.44863 1290.23 -11.9665L1290.34 -12.0452L1290.46 -12.1115L1291.69 -9.93215C1290.46 -12.1115 1290.46 -12.1122 1290.46 -12.113L1290.47 -12.1148L1290.48 -12.1197L1290.5 -12.134C1290.52 -12.1455 1290.55 -12.161 1290.59 -12.1802C1290.66 -12.2187 1290.76 -12.272 1290.89 -12.338C1291.14 -12.47 1291.51 -12.653 1291.97 -12.8697C1292.9 -13.3027 1294.23 -13.8729 1295.85 -14.4398C1299.09 -15.5679 1303.62 -16.7126 1308.61 -16.6797C1313.64 -16.6466 1319.18 -15.4212 1324.34 -11.7656C1328.99 -8.46464 1333.15 -3.2999 1336.34 4.38112C1337.92 2.08762 1340.12 -0.867956 1342.83 -3.85429C1346.55 -7.97489 1351.34 -12.2848 1356.85 -14.9304C1362.42 -17.6042 1368.83 -18.6156 1375.52 -15.888C1382.12 -13.1957 1388.58 -7.02272 1394.7 3.77463L1394.77 3.90744L1394.83 4.04841L1392.52 5.00643C1394.83 4.04841 1394.83 4.04977 1394.83 4.05119L1394.83 4.0543L1394.84 4.06155L1394.84 4.08009L1394.87 4.13326C1394.88 4.1758 1394.9 4.23252 1394.93 4.30305C1394.98 4.44411 1395.05 4.64059 1395.13 4.88973C1395.3 5.38783 1395.5 6.09756 1395.71 6.99672C1396.12 8.79424 1396.51 11.356 1396.5 14.5009C1396.47 20.8168 1394.79 29.4058 1388.36 38.7862L1388.35 38.7947L1345.49 100.271L1341.39 97.4114L1384.23 35.9604C1384.24 35.9572 1384.24 35.954 1384.24 35.9509C1390.05 27.4684 1391.48 19.8775 1391.5 14.4787C1391.51 11.7653 1391.17 9.58534 1390.83 8.10576C1390.66 7.36636 1390.5 6.80368 1390.38 6.43903C1390.33 6.28021 1390.28 6.15917 1390.26 6.07768C1384.47 -4.09031 1378.77 -9.16433 1373.63 -11.2583C1368.56 -13.328 1363.64 -12.6447 1359.01 -10.4229C1354.33 -8.17284 1350.05 -4.38631 1346.53 -0.500717Z" clip-rule="evenodd"/><path fill="#004B10" d="M1350.11 95.8062C1350.11 93.056 1347.88 90.8266 1345.13 90.8266C1342.38 90.8266 1340.15 93.056 1340.15 95.8062C1340.15 98.5563 1342.38 100.786 1345.13 100.786C1347.88 100.786 1350.11 98.5563 1350.11 95.8062Z"/><path fill="#004B10" d="M1159.96 72.5575C1159.96 69.8074 1157.73 67.578 1154.98 67.578C1152.23 67.578 1150 69.8074 1150 72.5575C1150 75.3077 1152.23 77.5371 1154.98 77.5371C1157.73 77.5371 1159.96 75.3077 1159.96 72.5575Z"/><path fill="#004B10" fill-rule="evenodd" d="M1706.53 -0.500717C1703.04 3.36441 1700.42 7.19838 1699.02 9.3934C1698.18 10.7181 1696.73 11.1489 1695.53 10.9789C1694.35 10.8111 1693.13 10.0287 1692.63 8.63874C1689.61 0.271444 1685.59 -4.74275 1681.44 -7.68765C1677.29 -10.6318 1672.8 -11.652 1668.58 -11.6798C1664.33 -11.7078 1660.4 -10.7287 1657.5 -9.71777C1656.05 -9.21514 1654.89 -8.71209 1654.09 -8.33911C1653.69 -8.15286 1653.38 -7.99975 1653.18 -7.89633C1653.12 -7.86241 1653.06 -7.83387 1653.02 -7.8113C1649.3 -5.09687 1646.76 -0.686563 1645.13 3.30429C1644.32 5.28714 1643.77 7.09058 1643.42 8.39533C1643.25 9.04619 1643.13 9.5689 1643.05 9.92284C1643.01 10.0997 1642.98 10.2341 1642.96 10.3209C1642.96 10.3643 1642.95 10.3958 1642.95 10.4148L1642.94 10.4332L1642.94 10.4343C1641.81 16.6637 1643.22 23.0259 1645.01 27.9604C1645.9 30.4054 1646.86 32.4444 1647.6 33.8672C1647.97 34.5774 1648.28 35.1308 1648.5 35.5009C1648.61 35.6859 1648.69 35.8248 1648.74 35.9143C1648.74 35.9146 1648.74 35.9141 1648.74 35.9143L1675.93 69.008C1677.81 71.292 1676.19 74.7299 1673.23 74.7299H1624.72L1619.31 46.3626L1601.86 150.625C1601.28 154.082 1596.25 153.91 1595.91 150.422L1583 18.4688L1565.31 103.748C1564.66 106.893 1560.19 106.952 1559.45 103.826L1552.61 74.7299H1513.51V69.7299H1554.19C1555.58 69.7299 1556.79 70.6876 1557.11 72.0427L1562.25 93.8858L1580.78 4.58565C1581.47 1.2201 1586.36 1.48186 1586.7 4.90293L1599.42 134.908L1616.22 34.5196C1616.78 31.218 1621.5 31.1648 1622.13 34.453L1628.86 69.7299H1670.06L1644.68 38.8433L1644.6 38.7155L1646.71 37.3733C1644.6 38.7155 1644.6 38.7148 1644.6 38.7141L1644.6 38.7125L1644.59 38.6958L1644.56 38.6561C1644.54 38.6231 1644.51 38.5769 1644.48 38.518C1644.4 38.4003 1644.3 38.2316 1644.18 38.0154C1643.93 37.5831 1643.58 36.9597 1643.17 36.1722C1642.35 34.5995 1641.29 32.3592 1640.31 29.6691C1638.37 24.3337 1636.67 17.0026 1638.02 9.53874L1640.46 9.98241C1638.02 9.53874 1638.02 9.53804 1638.02 9.5373L1638.02 9.53553L1638.02 9.53107L1638.03 9.51838L1638.03 9.47821C1638.04 9.44494 1638.05 9.39877 1638.06 9.34036C1638.08 9.22356 1638.12 9.05768 1638.17 8.84795C1638.26 8.42871 1638.4 7.83297 1638.59 7.10279C1638.98 5.64545 1639.6 3.63644 1640.5 1.41781C1642.28 -2.95159 1645.31 -8.44863 1650.23 -11.9665L1650.34 -12.0452L1650.46 -12.1115L1651.69 -9.93215C1650.46 -12.1115 1650.46 -12.1122 1650.46 -12.113L1650.47 -12.1148L1650.48 -12.1197L1650.5 -12.134C1650.52 -12.1455 1650.55 -12.161 1650.59 -12.1802C1650.66 -12.2187 1650.76 -12.272 1650.89 -12.338C1651.14 -12.47 1651.51 -12.653 1651.97 -12.8697C1652.9 -13.3027 1654.23 -13.8729 1655.85 -14.4398C1659.09 -15.5679 1663.62 -16.7126 1668.61 -16.6797C1673.64 -16.6466 1679.18 -15.4212 1684.34 -11.7656C1688.99 -8.46464 1693.15 -3.2999 1696.34 4.38112C1697.92 2.08762 1700.12 -0.867956 1702.83 -3.85429C1706.55 -7.97489 1711.34 -12.2848 1716.85 -14.9304C1722.42 -17.6042 1728.83 -18.6156 1735.52 -15.888C1742.12 -13.1957 1748.58 -7.02272 1754.7 3.77463L1754.77 3.90744L1754.83 4.04841L1752.52 5.00643C1754.83 4.04841 1754.83 4.04977 1754.83 4.05119L1754.83 4.0543L1754.84 4.06155L1754.84 4.08009L1754.87 4.13326C1754.88 4.1758 1754.9 4.23252 1754.93 4.30305C1754.98 4.44411 1755.05 4.64059 1755.13 4.88973C1755.3 5.38783 1755.5 6.09756 1755.71 6.99672C1756.12 8.79424 1756.51 11.356 1756.5 14.5009C1756.47 20.8168 1754.79 29.4058 1748.36 38.7862L1748.35 38.7947L1705.49 100.271L1701.39 97.4114L1744.24 35.9604C1744.24 35.9572 1744.24 35.954 1744.24 35.9509C1750.05 27.4684 1751.48 19.8775 1751.5 14.4787C1751.51 11.7653 1751.17 9.58534 1750.83 8.10576C1750.66 7.36636 1750.5 6.80368 1750.38 6.43903C1750.33 6.28021 1750.29 6.15917 1750.26 6.07768C1744.47 -4.09031 1738.77 -9.16433 1733.63 -11.2583C1728.56 -13.328 1723.64 -12.6447 1719.01 -10.4229C1714.33 -8.17284 1710.05 -4.38631 1706.53 -0.500717Z" clip-rule="evenodd"/><path fill="#004B10" d="M1710.11 95.8062C1710.11 93.056 1707.88 90.8266 1705.13 90.8266C1702.38 90.8266 1700.15 93.056 1700.15 95.8062C1700.15 98.5563 1702.38 100.786 1705.13 100.786C1707.88 100.786 1710.11 98.5563 1710.11 95.8062Z"/><path fill="#004B10" d="M1519.96 72.5575C1519.96 69.8074 1517.73 67.578 1514.98 67.578C1512.23 67.578 1510 69.8074 1510 72.5575C1510 75.3077 1512.23 77.5371 1514.98 77.5371C1517.73 77.5371 1519.96 75.3077 1519.96 72.5575Z"/><path fill="#004B10" fill-rule="evenodd" d="M1906.53 149.499C1903.04 153.364 1900.42 157.198 1899.02 159.393C1898.18 160.718 1896.73 161.149 1895.53 160.979C1894.35 160.811 1893.13 160.029 1892.63 158.639C1889.61 150.271 1885.59 145.257 1881.44 142.312C1877.29 139.368 1872.8 138.348 1868.58 138.32C1864.33 138.292 1860.4 139.271 1857.5 140.282C1856.05 140.785 1854.89 141.288 1854.09 141.661C1853.69 141.847 1853.38 142 1853.18 142.104C1853.12 142.138 1853.06 142.166 1853.02 142.189C1849.3 144.903 1846.76 149.313 1845.13 153.304C1844.32 155.287 1843.77 157.091 1843.42 158.395C1843.25 159.046 1843.13 159.569 1843.05 159.923C1843.01 160.1 1842.98 160.234 1842.96 160.321C1842.96 160.364 1842.95 160.396 1842.95 160.415L1842.94 160.433L1842.94 160.434C1841.81 166.664 1843.22 173.026 1845.01 177.96C1845.9 180.405 1846.86 182.444 1847.6 183.867C1847.97 184.577 1848.28 185.131 1848.5 185.501C1848.61 185.686 1848.69 185.825 1848.74 185.914C1848.74 185.915 1848.74 185.914 1848.74 185.914L1875.93 219.008C1877.81 221.292 1876.19 224.73 1873.23 224.73H1824.72L1819.31 196.363L1801.86 300.625C1801.28 304.082 1796.25 303.91 1795.91 300.422L1783 168.469L1765.31 253.748C1764.66 256.893 1760.19 256.952 1759.45 253.826L1752.61 224.73H1713.51V219.73H1754.19C1755.58 219.73 1756.79 220.688 1757.11 222.043L1762.25 243.886L1780.78 154.586C1781.47 151.22 1786.36 151.482 1786.7 154.903L1799.42 284.908L1816.22 184.52C1816.78 181.218 1821.5 181.165 1822.13 184.453L1828.86 219.73H1870.06L1844.68 188.843L1844.6 188.715L1846.71 187.373C1844.6 188.715 1844.6 188.715 1844.6 188.714L1844.6 188.712L1844.59 188.696L1844.56 188.656C1844.54 188.623 1844.51 188.577 1844.48 188.518C1844.4 188.4 1844.3 188.232 1844.18 188.015C1843.93 187.583 1843.58 186.96 1843.17 186.172C1842.35 184.599 1841.29 182.359 1840.31 179.669C1838.37 174.334 1836.67 167.003 1838.02 159.539L1840.46 159.982C1838.02 159.539 1838.02 159.538 1838.02 159.537L1838.02 159.536L1838.02 159.531L1838.03 159.518L1838.03 159.478C1838.04 159.445 1838.05 159.399 1838.06 159.34C1838.08 159.224 1838.12 159.058 1838.17 158.848C1838.26 158.429 1838.4 157.833 1838.59 157.103C1838.98 155.645 1839.6 153.636 1840.5 151.418C1842.28 147.048 1845.31 141.551 1850.23 138.034L1850.34 137.955L1850.46 137.888L1851.69 140.068C1850.46 137.888 1850.46 137.888 1850.46 137.887L1850.47 137.885L1850.48 137.88L1850.5 137.866C1850.52 137.855 1850.55 137.839 1850.59 137.82C1850.66 137.781 1850.76 137.728 1850.89 137.662C1851.14 137.53 1851.51 137.347 1851.97 137.13C1852.9 136.697 1854.23 136.127 1855.85 135.56C1859.09 134.432 1863.62 133.287 1868.61 133.32C1873.64 133.353 1879.18 134.579 1884.34 138.234C1888.99 141.535 1893.15 146.7 1896.34 154.381C1897.92 152.088 1900.12 149.132 1902.83 146.146C1906.55 142.025 1911.34 137.715 1916.85 135.07C1922.42 132.396 1928.83 131.384 1935.52 134.112C1942.12 136.804 1948.58 142.977 1954.7 153.775L1954.77 153.907L1954.83 154.048L1952.52 155.006C1954.83 154.048 1954.83 154.05 1954.83 154.051L1954.83 154.054L1954.84 154.062L1954.84 154.08L1954.87 154.133C1954.88 154.176 1954.9 154.233 1954.93 154.303C1954.98 154.444 1955.05 154.641 1955.13 154.89C1955.3 155.388 1955.5 156.098 1955.71 156.997C1956.12 158.794 1956.51 161.356 1956.5 164.501C1956.47 170.817 1954.79 179.406 1948.36 188.786L1948.35 188.795L1905.49 250.271L1901.39 247.411L1944.24 185.96C1944.24 185.957 1944.24 185.954 1944.24 185.951C1950.05 177.468 1951.48 169.878 1951.5 164.479C1951.51 161.765 1951.17 159.585 1950.83 158.106C1950.66 157.366 1950.5 156.804 1950.38 156.439C1950.33 156.28 1950.29 156.159 1950.26 156.078C1944.47 145.91 1938.77 140.836 1933.63 138.742C1928.56 136.672 1923.64 137.355 1919.01 139.577C1914.33 141.827 1910.05 145.614 1906.53 149.499Z" clip-rule="evenodd"/><path fill="#004B10" d="M1910.11 245.806C1910.11 243.056 1907.88 240.827 1905.13 240.827C1902.38 240.827 1900.15 243.056 1900.15 245.806C1900.15 248.556 1902.38 250.786 1905.13 250.786C1907.88 250.786 1910.11 248.556 1910.11 245.806Z"/><path fill="#004B10" d="M1719.96 222.558C1719.96 219.807 1717.73 217.578 1714.98 217.578C1712.23 217.578 1710 219.807 1710 222.558C1710 225.308 1712.23 227.537 1714.98 227.537C1717.73 227.537 1719.96 225.308 1719.96 222.558Z"/><path fill="#004B10" fill-rule="evenodd" d="M1506.53 189.499C1503.04 193.364 1500.42 197.198 1499.02 199.393C1498.18 200.718 1496.73 201.149 1495.53 200.979C1494.35 200.811 1493.13 200.029 1492.63 198.639C1489.61 190.271 1485.59 185.257 1481.44 182.312C1477.29 179.368 1472.8 178.348 1468.58 178.32C1464.33 178.292 1460.4 179.271 1457.5 180.282C1456.05 180.785 1454.89 181.288 1454.09 181.661C1453.69 181.847 1453.38 182 1453.18 182.104C1453.12 182.138 1453.06 182.166 1453.02 182.189C1449.3 184.903 1446.76 189.313 1445.13 193.304C1444.32 195.287 1443.77 197.091 1443.42 198.395C1443.25 199.046 1443.13 199.569 1443.05 199.923C1443.01 200.1 1442.98 200.234 1442.96 200.321C1442.96 200.364 1442.95 200.396 1442.95 200.415L1442.94 200.433L1442.94 200.434C1441.81 206.664 1443.22 213.026 1445.01 217.96C1445.9 220.405 1446.86 222.444 1447.6 223.867C1447.97 224.577 1448.28 225.131 1448.5 225.501C1448.61 225.686 1448.69 225.825 1448.74 225.914C1448.74 225.915 1448.74 225.914 1448.74 225.914L1475.93 259.008C1477.81 261.292 1476.19 264.73 1473.23 264.73H1424.72L1419.31 236.363L1401.86 340.625C1401.28 344.082 1396.25 343.91 1395.91 340.422L1383 208.469L1365.31 293.748C1364.66 296.893 1360.19 296.952 1359.45 293.826L1352.61 264.73H1313.51V259.73H1354.19C1355.58 259.73 1356.79 260.688 1357.11 262.043L1362.25 283.886L1380.78 194.586C1381.47 191.22 1386.36 191.482 1386.7 194.903L1399.42 324.908L1416.22 224.52C1416.78 221.218 1421.5 221.165 1422.13 224.453L1428.86 259.73H1470.06L1444.68 228.843L1444.6 228.715L1446.71 227.373C1444.6 228.715 1444.6 228.715 1444.6 228.714L1444.6 228.712L1444.59 228.696L1444.56 228.656C1444.54 228.623 1444.51 228.577 1444.48 228.518C1444.4 228.4 1444.3 228.232 1444.18 228.015C1443.93 227.583 1443.58 226.96 1443.17 226.172C1442.35 224.599 1441.29 222.359 1440.31 219.669C1438.37 214.334 1436.67 207.003 1438.02 199.539L1440.46 199.982C1438.02 199.539 1438.02 199.538 1438.02 199.537L1438.02 199.536L1438.02 199.531L1438.03 199.518L1438.03 199.478C1438.04 199.445 1438.05 199.399 1438.06 199.34C1438.08 199.224 1438.12 199.058 1438.17 198.848C1438.26 198.429 1438.4 197.833 1438.59 197.103C1438.98 195.645 1439.6 193.636 1440.5 191.418C1442.28 187.048 1445.31 181.551 1450.23 178.034L1450.34 177.955L1450.46 177.888L1451.69 180.068C1450.46 177.888 1450.46 177.888 1450.46 177.887L1450.47 177.885L1450.48 177.88L1450.5 177.866C1450.52 177.855 1450.55 177.839 1450.59 177.82C1450.66 177.781 1450.76 177.728 1450.89 177.662C1451.14 177.53 1451.51 177.347 1451.97 177.13C1452.9 176.697 1454.23 176.127 1455.85 175.56C1459.09 174.432 1463.62 173.287 1468.61 173.32C1473.64 173.353 1479.18 174.579 1484.34 178.234C1488.99 181.535 1493.15 186.7 1496.34 194.381C1497.92 192.088 1500.12 189.132 1502.83 186.146C1506.55 182.025 1511.34 177.715 1516.85 175.07C1522.42 172.396 1528.83 171.384 1535.52 174.112C1542.12 176.804 1548.58 182.977 1554.7 193.775L1554.77 193.907L1554.83 194.048L1552.52 195.006C1554.83 194.048 1554.83 194.05 1554.83 194.051L1554.83 194.054L1554.84 194.062L1554.84 194.08L1554.87 194.133C1554.88 194.176 1554.9 194.233 1554.93 194.303C1554.98 194.444 1555.05 194.641 1555.13 194.89C1555.3 195.388 1555.5 196.098 1555.71 196.997C1556.12 198.794 1556.51 201.356 1556.5 204.501C1556.47 210.817 1554.79 219.406 1548.36 228.786L1548.35 228.795L1505.49 290.271L1501.39 287.411L1544.24 225.96C1544.24 225.957 1544.24 225.954 1544.24 225.951C1550.05 217.468 1551.48 209.878 1551.5 204.479C1551.51 201.765 1551.17 199.585 1550.83 198.106C1550.66 197.366 1550.5 196.804 1550.38 196.439C1550.33 196.28 1550.29 196.159 1550.26 196.078C1544.47 185.91 1538.77 180.836 1533.63 178.742C1528.56 176.672 1523.64 177.355 1519.01 179.577C1514.33 181.827 1510.05 185.614 1506.53 189.499Z" clip-rule="evenodd"/><path fill="#004B10" d="M1510.11 285.806C1510.11 283.056 1507.88 280.827 1505.13 280.827C1502.38 280.827 1500.15 283.056 1500.15 285.806C1500.15 288.556 1502.38 290.786 1505.13 290.786C1507.88 290.786 1510.11 288.556 1510.11 285.806Z"/><path fill="#004B10" d="M1319.96 262.558C1319.96 259.807 1317.73 257.578 1314.98 257.578C1312.23 257.578 1310 259.807 1310 262.558C1310 265.308 1312.23 267.537 1314.98 267.537C1317.73 267.537 1319.96 265.308 1319.96 262.558Z"/><path fill="#004B10" fill-rule="evenodd" d="M1135.53 189.499C1132.04 193.364 1129.42 197.198 1128.02 199.393C1127.18 200.718 1125.73 201.149 1124.53 200.979C1123.35 200.811 1122.13 200.029 1121.63 198.639C1118.61 190.271 1114.59 185.257 1110.44 182.312C1106.29 179.368 1101.8 178.348 1097.58 178.32C1093.33 178.292 1089.4 179.271 1086.5 180.282C1085.05 180.785 1083.89 181.288 1083.09 181.661C1082.69 181.847 1082.38 182 1082.18 182.104C1082.12 182.138 1082.06 182.166 1082.02 182.189C1078.3 184.903 1075.76 189.313 1074.13 193.304C1073.32 195.287 1072.77 197.091 1072.42 198.395C1072.25 199.046 1072.13 199.569 1072.05 199.923C1072.01 200.1 1071.98 200.234 1071.96 200.321C1071.96 200.364 1071.95 200.396 1071.95 200.415L1071.94 200.433L1071.94 200.434C1070.81 206.664 1072.22 213.026 1074.01 217.96C1074.9 220.405 1075.86 222.444 1076.6 223.867C1076.97 224.577 1077.28 225.131 1077.5 225.501C1077.61 225.686 1077.69 225.825 1077.74 225.914C1077.74 225.915 1077.74 225.914 1077.74 225.914L1104.93 259.008C1106.81 261.292 1105.19 264.73 1102.23 264.73H1053.72L1048.31 236.363L1030.86 340.625C1030.28 344.082 1025.25 343.91 1024.91 340.422L1012 208.469L994.311 293.748C993.659 296.893 989.189 296.952 988.454 293.826L981.606 264.73H942.505V259.73H983.19C984.582 259.73 985.791 260.688 986.11 262.043L991.251 283.886L1009.78 194.586C1010.47 191.22 1015.36 191.482 1015.7 194.903L1028.42 324.908L1045.22 224.52C1045.78 221.218 1050.5 221.165 1051.13 224.453L1057.86 259.73H1099.06L1073.68 228.843L1073.6 228.715L1075.71 227.373C1073.6 228.715 1073.6 228.715 1073.6 228.714L1073.6 228.712L1073.59 228.696L1073.56 228.656C1073.54 228.623 1073.51 228.577 1073.48 228.518C1073.4 228.4 1073.3 228.232 1073.18 228.015C1072.93 227.583 1072.58 226.96 1072.17 226.172C1071.35 224.599 1070.29 222.359 1069.31 219.669C1067.37 214.334 1065.67 207.003 1067.02 199.539L1069.46 199.982C1067.02 199.539 1067.02 199.538 1067.02 199.537L1067.02 199.536L1067.02 199.531L1067.03 199.518L1067.03 199.478C1067.04 199.445 1067.05 199.399 1067.06 199.34C1067.08 199.224 1067.12 199.058 1067.17 198.848C1067.26 198.429 1067.4 197.833 1067.59 197.103C1067.98 195.645 1068.6 193.636 1069.5 191.418C1071.28 187.048 1074.31 181.551 1079.23 178.034L1079.34 177.955L1079.46 177.888L1080.69 180.068C1079.46 177.888 1079.46 177.888 1079.46 177.887L1079.47 177.885L1079.48 177.88L1079.5 177.866C1079.52 177.855 1079.55 177.839 1079.59 177.82C1079.66 177.781 1079.76 177.728 1079.89 177.662C1080.14 177.53 1080.51 177.347 1080.97 177.13C1081.9 176.697 1083.23 176.127 1084.85 175.56C1088.09 174.432 1092.62 173.287 1097.61 173.32C1102.64 173.353 1108.18 174.579 1113.34 178.234C1117.99 181.535 1122.15 186.7 1125.34 194.381C1126.92 192.088 1129.12 189.132 1131.83 186.146C1135.55 182.025 1140.34 177.715 1145.85 175.07C1151.42 172.396 1157.83 171.384 1164.52 174.112C1171.12 176.804 1177.58 182.977 1183.7 193.775L1183.77 193.907L1183.83 194.048L1181.52 195.006C1183.83 194.048 1183.83 194.05 1183.83 194.051L1183.83 194.054L1183.84 194.062L1183.84 194.08L1183.87 194.133C1183.88 194.176 1183.9 194.233 1183.93 194.303C1183.98 194.444 1184.05 194.641 1184.13 194.89C1184.3 195.388 1184.5 196.098 1184.71 196.997C1185.12 198.794 1185.51 201.356 1185.5 204.501C1185.47 210.817 1183.79 219.406 1177.36 228.786L1177.35 228.795L1134.49 290.271L1130.39 287.411L1173.23 225.96C1173.24 225.957 1173.24 225.954 1173.24 225.951C1179.05 217.468 1180.48 209.878 1180.5 204.479C1180.51 201.765 1180.17 199.585 1179.83 198.106C1179.66 197.366 1179.5 196.804 1179.38 196.439C1179.33 196.28 1179.28 196.159 1179.26 196.078C1173.47 185.91 1167.77 180.836 1162.63 178.742C1157.56 176.672 1152.64 177.355 1148.01 179.577C1143.33 181.827 1139.05 185.614 1135.53 189.499Z" clip-rule="evenodd"/><path fill="#004B10" d="M1139.11 285.806C1139.11 283.056 1136.88 280.827 1134.13 280.827C1131.38 280.827 1129.15 283.056 1129.15 285.806C1129.15 288.556 1131.38 290.786 1134.13 290.786C1136.88 290.786 1139.11 288.556 1139.11 285.806Z"/><path fill="#004B10" d="M948.959 262.558C948.959 259.807 946.73 257.578 943.98 257.578C941.229 257.578 939 259.807 939 262.558C939 265.308 941.229 267.537 943.98 267.537C946.73 267.537 948.959 265.308 948.959 262.558Z"/><path fill="#004B10" fill-rule="evenodd" d="M794.534 189.499C791.039 193.364 788.417 197.198 787.019 199.393C786.176 200.718 784.727 201.149 783.531 200.979C782.35 200.811 781.135 200.029 780.632 198.639C777.608 190.271 773.593 185.257 769.442 182.312C765.293 179.368 760.804 178.348 756.581 178.32C752.335 178.292 748.401 179.271 745.497 180.282C744.053 180.785 742.885 181.288 742.086 181.661C741.688 181.847 741.382 182 741.182 182.104C741.116 182.138 741.062 182.166 741.02 182.189C737.296 184.903 734.758 189.313 733.132 193.304C732.324 195.287 731.772 197.091 731.423 198.395C731.249 199.046 731.126 199.569 731.048 199.923C731.009 200.1 730.982 200.234 730.964 200.321C730.956 200.364 730.949 200.396 730.946 200.415L730.942 200.433L730.942 200.434C729.81 206.664 731.216 213.026 733.011 217.96C733.9 220.405 734.864 222.444 735.603 223.867C735.972 224.577 736.283 225.131 736.498 225.501C736.606 225.686 736.69 225.825 736.744 225.914C736.744 225.915 736.744 225.914 736.744 225.914L763.935 259.008C765.811 261.292 764.187 264.73 761.23 264.73H712.721L707.311 236.363L689.855 340.625C689.277 344.082 684.252 343.91 683.911 340.422L671.002 208.469L653.311 293.748C652.659 296.893 648.189 296.952 647.454 293.826L640.606 264.73H601.505V259.73H642.19C643.582 259.73 644.791 260.688 645.11 262.043L650.251 283.886L668.776 194.586C669.474 191.22 674.364 191.482 674.699 194.903L687.417 324.908L704.224 224.52C704.777 221.218 709.503 221.165 710.13 224.453L716.857 259.73H758.057L732.679 228.843L732.598 228.715L734.707 227.373C732.598 228.715 732.598 228.715 732.597 228.714L732.596 228.712L732.585 228.696L732.561 228.656C732.54 228.623 732.511 228.577 732.476 228.518C732.404 228.4 732.302 228.232 732.177 228.015C731.925 227.583 731.575 226.96 731.166 226.172C730.349 224.599 729.29 222.359 728.312 219.669C726.372 214.334 724.666 207.003 726.023 199.539L728.463 199.982C726.023 199.539 726.023 199.538 726.023 199.537L726.024 199.536L726.024 199.531L726.027 199.518L726.034 199.478C726.041 199.445 726.05 199.399 726.061 199.34C726.085 199.224 726.119 199.058 726.165 198.848C726.257 198.429 726.397 197.833 726.593 197.103C726.983 195.645 727.598 193.636 728.502 191.418C730.282 187.048 733.309 181.551 738.234 178.034L738.344 177.955L738.462 177.888L739.687 180.068C738.462 177.888 738.463 177.888 738.464 177.887L738.468 177.885L738.476 177.88L738.502 177.866C738.523 177.855 738.551 177.839 738.587 177.82C738.658 177.781 738.758 177.728 738.886 177.662C739.141 177.53 739.507 177.347 739.971 177.13C740.899 176.697 742.225 176.127 743.853 175.56C747.094 174.432 751.616 173.287 756.614 173.32C761.637 173.353 767.183 174.579 772.336 178.234C776.988 181.535 781.154 186.7 784.343 194.381C785.921 192.088 788.125 189.132 790.825 186.146C794.551 182.025 799.339 177.715 804.85 175.07C810.42 172.396 816.834 171.384 823.521 174.112C830.122 176.804 836.584 182.977 842.697 193.775L842.772 193.907L842.831 194.048L840.522 195.006C842.831 194.048 842.832 194.05 842.832 194.051L842.833 194.054L842.836 194.062L842.844 194.08L842.865 194.133C842.882 194.176 842.904 194.233 842.93 194.303C842.982 194.444 843.052 194.641 843.133 194.89C843.296 195.388 843.504 196.098 843.708 196.997C844.117 198.794 844.514 201.356 844.5 204.501C844.472 210.817 842.786 219.406 836.36 228.786L836.354 228.795L793.495 290.271L789.393 287.411L832.235 225.96C832.237 225.957 832.239 225.954 832.241 225.951C838.05 217.468 839.476 209.878 839.5 204.479C839.512 201.765 839.169 199.585 838.833 198.106C838.665 197.366 838.498 196.804 838.379 196.439C838.328 196.28 838.285 196.159 838.255 196.078C832.468 185.91 826.767 180.836 821.633 178.742C816.558 176.672 811.643 177.355 807.014 179.577C802.327 181.827 798.047 185.614 794.534 189.499Z" clip-rule="evenodd"/><path fill="#004B10" d="M798.106 285.806C798.106 283.056 795.876 280.827 793.126 280.827C790.376 280.827 788.146 283.056 788.146 285.806C788.146 288.556 790.376 290.786 793.126 290.786C795.876 290.786 798.106 288.556 798.106 285.806Z"/><path fill="#004B10" d="M607.959 262.558C607.959 259.807 605.73 257.578 602.98 257.578C600.229 257.578 598 259.807 598 262.558C598 265.308 600.229 267.537 602.98 267.537C605.73 267.537 607.959 265.308 607.959 262.558Z"/><path fill="#004B10" fill-rule="evenodd" d="M453.534 189.499C450.039 193.364 447.417 197.198 446.019 199.393C445.176 200.718 443.727 201.149 442.531 200.979C441.35 200.811 440.135 200.029 439.632 198.639C436.608 190.271 432.593 185.257 428.442 182.312C424.293 179.368 419.804 178.348 415.581 178.32C411.335 178.292 407.401 179.271 404.497 180.282C403.053 180.785 401.885 181.288 401.086 181.661C400.688 181.847 400.382 182 400.182 182.104C400.116 182.138 400.062 182.166 400.02 182.189C396.296 184.903 393.758 189.313 392.132 193.304C391.324 195.287 390.772 197.091 390.423 198.395C390.249 199.046 390.126 199.569 390.048 199.923C390.009 200.1 389.982 200.234 389.964 200.321C389.956 200.364 389.949 200.396 389.946 200.415L389.942 200.433L389.942 200.434C388.81 206.664 390.216 213.026 392.011 217.96C392.9 220.405 393.864 222.444 394.603 223.867C394.972 224.577 395.283 225.131 395.498 225.501C395.606 225.686 395.69 225.825 395.744 225.914C395.744 225.915 395.744 225.914 395.744 225.914L422.935 259.008C424.811 261.292 423.187 264.73 420.231 264.73H371.721L366.311 236.363L348.855 340.625C348.277 344.082 343.252 343.91 342.911 340.422L330.002 208.469L312.311 293.748C311.659 296.893 307.189 296.952 306.454 293.826L299.606 264.73H260.505V259.73H301.19C302.582 259.73 303.791 260.688 304.11 262.043L309.251 283.886L327.776 194.586C328.474 191.22 333.364 191.482 333.699 194.903L346.417 324.908L363.224 224.52C363.777 221.218 368.503 221.165 369.13 224.453L375.857 259.73H417.057L391.679 228.843L391.598 228.715L393.707 227.373C391.598 228.715 391.598 228.715 391.597 228.714L391.596 228.712L391.585 228.696L391.561 228.656C391.54 228.623 391.511 228.577 391.476 228.518C391.404 228.4 391.302 228.232 391.177 228.015C390.925 227.583 390.575 226.96 390.166 226.172C389.349 224.599 388.29 222.359 387.312 219.669C385.372 214.334 383.666 207.003 385.023 199.539L387.463 199.982C385.023 199.539 385.023 199.538 385.023 199.537L385.024 199.536L385.024 199.531L385.027 199.518L385.034 199.478C385.041 199.445 385.05 199.399 385.061 199.34C385.085 199.224 385.119 199.058 385.165 198.848C385.257 198.429 385.397 197.833 385.593 197.103C385.983 195.645 386.598 193.636 387.502 191.418C389.282 187.048 392.309 181.551 397.234 178.034L397.344 177.955L397.462 177.888L398.687 180.068C397.462 177.888 397.463 177.888 397.464 177.887L397.468 177.885L397.476 177.88L397.502 177.866C397.523 177.855 397.551 177.839 397.587 177.82C397.658 177.781 397.758 177.728 397.886 177.662C398.141 177.53 398.507 177.347 398.971 177.13C399.899 176.697 401.225 176.127 402.853 175.56C406.094 174.432 410.616 173.287 415.614 173.32C420.637 173.353 426.183 174.579 431.336 178.234C435.988 181.535 440.154 186.7 443.343 194.381C444.921 192.088 447.125 189.132 449.825 186.146C453.551 182.025 458.339 177.715 463.85 175.07C469.42 172.396 475.834 171.384 482.521 174.112C489.122 176.804 495.584 182.977 501.697 193.775L501.772 193.907L501.831 194.048L499.522 195.006C501.831 194.048 501.832 194.05 501.832 194.051L501.833 194.054L501.836 194.062L501.844 194.08L501.865 194.133C501.882 194.176 501.904 194.233 501.93 194.303C501.982 194.444 502.052 194.641 502.133 194.89C502.296 195.388 502.504 196.098 502.708 196.997C503.117 198.794 503.514 201.356 503.5 204.501C503.472 210.817 501.786 219.406 495.36 228.786L495.354 228.795L452.495 290.271L448.393 287.411L491.235 225.96C491.237 225.957 491.239 225.954 491.241 225.951C497.05 217.468 498.476 209.878 498.5 204.479C498.512 201.765 498.169 199.585 497.833 198.106C497.665 197.366 497.498 196.804 497.379 196.439C497.328 196.28 497.285 196.159 497.255 196.078C491.468 185.91 485.767 180.836 480.633 178.742C475.558 176.672 470.643 177.355 466.014 179.577C461.327 181.827 457.047 185.614 453.534 189.499Z" clip-rule="evenodd"/><path fill="#004B10" d="M457.106 285.806C457.106 283.056 454.876 280.827 452.126 280.827C449.376 280.827 447.146 283.056 447.146 285.806C447.146 288.556 449.376 290.786 452.126 290.786C454.876 290.786 457.106 288.556 457.106 285.806Z"/><path fill="#004B10" d="M266.959 262.558C266.959 259.807 264.73 257.578 261.98 257.578C259.229 257.578 257 259.807 257 262.558C257 265.308 259.229 267.537 261.98 267.537C264.73 267.537 266.959 265.308 266.959 262.558Z"/><path fill="#004B10" fill-rule="evenodd" d="M103.534 189.499C100.039 193.364 97.4166 197.198 96.0191 199.393C95.1758 200.718 93.727 201.149 92.5306 200.979C91.3501 200.811 90.1346 200.029 89.6322 198.639C86.6084 190.271 82.5933 185.257 78.4424 182.312C74.2926 179.368 69.8038 178.348 65.5814 178.32C61.3345 178.292 57.401 179.271 54.4973 180.282C53.0535 180.785 51.8854 181.288 51.0865 181.661C50.6875 181.847 50.3822 182 50.1821 182.104C50.1165 182.138 50.0623 182.166 50.0198 182.189C46.2962 184.903 43.758 189.313 42.1321 193.304C41.3243 195.287 40.7721 197.091 40.4229 198.395C40.2487 199.046 40.1262 199.569 40.0483 199.923C40.0093 200.1 39.9816 200.234 39.9642 200.321C39.9556 200.364 39.9495 200.396 39.9459 200.415L39.9424 200.433L39.9422 200.434C38.8099 206.664 40.2164 213.026 42.0107 217.96C42.8998 220.405 43.8638 222.444 44.6029 223.867C44.9719 224.577 45.2831 225.131 45.4984 225.501C45.606 225.686 45.6895 225.825 45.7441 225.914C45.7443 225.915 45.744 225.914 45.7441 225.914L72.9348 259.008C74.8114 261.292 73.1866 264.73 70.2305 264.73H21.7208L16.311 236.363L-1.14466 340.625C-1.72346 344.082 -6.74799 343.91 -7.08923 340.422L-19.9976 208.469L-37.6886 293.748C-38.3409 296.893 -42.8106 296.952 -43.5463 293.826L-50.3939 264.73H-89.4949V259.73H-48.8099C-47.4178 259.73 -46.2086 260.688 -45.8897 262.043L-40.7491 283.886L-22.2241 194.586C-21.5259 191.22 -16.6355 191.482 -16.3009 194.903L-3.58297 324.908L13.2242 224.52C13.7769 221.218 18.5028 221.165 19.1299 224.453L25.8573 259.73H67.0567L41.6793 228.843L41.598 228.715L43.7071 227.373C41.598 228.715 41.5975 228.715 41.5971 228.714L41.596 228.712L41.5855 228.696L41.5606 228.656C41.54 228.623 41.5115 228.577 41.4756 228.518C41.4037 228.4 41.3025 228.232 41.1767 228.015C40.9252 227.583 40.575 226.96 40.1659 226.172C39.3489 224.599 38.29 222.359 37.3118 219.669C35.3716 214.334 33.666 207.003 35.023 199.539L37.4632 199.982C35.023 199.539 35.0232 199.538 35.0233 199.537L35.0236 199.536L35.0244 199.531L35.0268 199.518L35.0344 199.478C35.0407 199.445 35.0497 199.399 35.0614 199.34C35.0847 199.224 35.119 199.058 35.1652 198.848C35.2575 198.429 35.3975 197.833 35.5929 197.103C35.9829 195.645 36.5977 193.636 37.5016 191.418C39.2818 187.048 42.3085 181.551 47.2335 178.034L47.3437 177.955L47.4618 177.888L48.6866 180.068C47.4618 177.888 47.463 177.888 47.4643 177.887L47.4676 177.885L47.4763 177.88L47.5021 177.866C47.5231 177.855 47.5514 177.839 47.587 177.82C47.6582 177.781 47.7584 177.728 47.8861 177.662C48.1414 177.53 48.5071 177.347 48.9713 177.13C49.8987 176.697 51.225 176.127 52.8534 175.56C56.094 174.432 60.6161 173.287 65.6144 173.32C70.6372 173.353 76.183 174.579 81.3356 178.234C85.9883 181.535 90.1545 186.7 93.3432 194.381C94.9209 192.088 97.1248 189.132 99.8253 186.146C103.551 182.025 108.339 177.715 113.85 175.07C119.42 172.396 125.834 171.384 132.521 174.112C139.122 176.804 145.584 182.977 151.697 193.775L151.772 193.907L151.831 194.048L149.522 195.006C151.831 194.048 151.832 194.05 151.832 194.051L151.833 194.054L151.836 194.062L151.844 194.08L151.865 194.133C151.882 194.176 151.904 194.233 151.93 194.303C151.982 194.444 152.052 194.641 152.133 194.89C152.296 195.388 152.504 196.098 152.708 196.997C153.117 198.794 153.514 201.356 153.5 204.501C153.472 210.817 151.786 219.406 145.36 228.786L145.354 228.795L102.495 290.271L98.3933 287.411L141.235 225.96C141.237 225.957 141.239 225.954 141.241 225.951C147.05 217.468 148.476 209.878 148.5 204.479C148.512 201.765 148.169 199.585 147.833 198.106C147.665 197.366 147.498 196.804 147.379 196.439C147.328 196.28 147.285 196.159 147.255 196.078C141.468 185.91 135.767 180.836 130.633 178.742C125.558 176.672 120.643 177.355 116.014 179.577C111.327 181.827 107.048 185.614 103.534 189.499Z" clip-rule="evenodd"/><path fill="#004B10" d="M107.106 285.806C107.106 283.056 104.876 280.827 102.126 280.827C99.3759 280.827 97.1464 283.056 97.1464 285.806C97.1464 288.556 99.3759 290.786 102.126 290.786C104.876 290.786 107.106 288.556 107.106 285.806Z"/><path fill="#004B10" fill-rule="evenodd" d="M224.534 379.499C221.039 383.364 218.417 387.198 217.019 389.393C216.176 390.718 214.727 391.149 213.531 390.979C212.35 390.811 211.135 390.029 210.632 388.639C207.608 380.271 203.593 375.257 199.442 372.312C195.293 369.368 190.804 368.348 186.581 368.32C182.335 368.292 178.401 369.271 175.497 370.282C174.053 370.785 172.885 371.288 172.086 371.661C171.688 371.847 171.382 372 171.182 372.104C171.116 372.138 171.062 372.166 171.02 372.189C167.296 374.903 164.758 379.313 163.132 383.304C162.324 385.287 161.772 387.091 161.423 388.395C161.249 389.046 161.126 389.569 161.048 389.923C161.009 390.1 160.982 390.234 160.964 390.321C160.956 390.364 160.949 390.396 160.946 390.415L160.942 390.433L160.942 390.434C159.81 396.664 161.216 403.026 163.011 407.96C163.9 410.405 164.864 412.444 165.603 413.867C165.972 414.577 166.283 415.131 166.498 415.501C166.606 415.686 166.69 415.825 166.744 415.914C166.744 415.915 166.744 415.914 166.744 415.914L193.935 449.008C195.811 451.292 194.187 454.73 191.231 454.73H142.721L137.311 426.363L119.855 530.625C119.277 534.082 114.252 533.91 113.911 530.422L101.002 398.469L83.3114 483.748C82.659 486.893 78.1894 486.952 77.4537 483.826L70.6061 454.73H31.5051V449.73H72.1901C73.5822 449.73 74.7914 450.688 75.1103 452.043L80.2509 473.886L98.7759 384.586C99.4741 381.22 104.364 381.482 104.699 384.903L117.417 514.908L134.224 414.52C134.777 411.218 139.503 411.165 140.13 414.453L146.857 449.73H188.057L162.679 418.843L162.598 418.716L164.707 417.373C162.598 418.716 162.598 418.715 162.597 418.714L162.596 418.712L162.585 418.696L162.561 418.656C162.54 418.623 162.511 418.577 162.476 418.518C162.404 418.4 162.302 418.232 162.177 418.015C161.925 417.583 161.575 416.96 161.166 416.172C160.349 414.599 159.29 412.359 158.312 409.669C156.372 404.334 154.666 397.003 156.023 389.539L158.463 389.982C156.023 389.539 156.023 389.538 156.023 389.537L156.024 389.536L156.024 389.531L156.027 389.518L156.034 389.478C156.041 389.445 156.05 389.399 156.061 389.34C156.085 389.224 156.119 389.058 156.165 388.848C156.257 388.429 156.397 387.833 156.593 387.103C156.983 385.645 157.598 383.636 158.502 381.418C160.282 377.048 163.309 371.551 168.234 368.034L168.344 367.955L168.462 367.888L169.687 370.068C168.462 367.888 168.463 367.888 168.464 367.887L168.468 367.885L168.476 367.88L168.502 367.866C168.523 367.855 168.551 367.839 168.587 367.82C168.658 367.781 168.758 367.728 168.886 367.662C169.141 367.53 169.507 367.347 169.971 367.13C170.899 366.697 172.225 366.127 173.853 365.56C177.094 364.432 181.616 363.287 186.614 363.32C191.637 363.353 197.183 364.579 202.336 368.234C206.988 371.535 211.154 376.7 214.343 384.381C215.921 382.088 218.125 379.132 220.825 376.146C224.551 372.025 229.339 367.715 234.85 365.07C240.42 362.396 246.834 361.384 253.521 364.112C260.122 366.804 266.584 372.977 272.697 383.775L272.772 383.907L272.831 384.048L270.522 385.006C272.831 384.048 272.832 384.05 272.832 384.051L272.833 384.054L272.836 384.062L272.844 384.08L272.865 384.133C272.882 384.176 272.904 384.233 272.93 384.303C272.982 384.444 273.052 384.641 273.133 384.89C273.296 385.388 273.504 386.098 273.708 386.997C274.117 388.794 274.514 391.356 274.5 394.501C274.472 400.817 272.786 409.406 266.36 418.786L266.354 418.795L223.495 480.271L219.393 477.411L262.235 415.96C262.237 415.957 262.239 415.954 262.241 415.951C268.05 407.468 269.476 399.878 269.5 394.479C269.512 391.765 269.169 389.585 268.833 388.106C268.665 387.366 268.498 386.804 268.379 386.439C268.328 386.28 268.285 386.159 268.255 386.078C262.468 375.91 256.767 370.836 251.633 368.742C246.558 366.672 241.643 367.355 237.014 369.577C232.327 371.827 228.047 375.614 224.534 379.499Z" clip-rule="evenodd"/><path fill="#004B10" d="M228.106 475.806C228.106 473.056 225.876 470.827 223.126 470.827C220.376 470.827 218.146 473.056 218.146 475.806C218.146 478.556 220.376 480.786 223.126 480.786C225.876 480.786 228.106 478.556 228.106 475.806Z"/><path fill="#004B10" d="M37.9592 452.558C37.9592 449.807 35.7297 447.578 32.9796 447.578C30.2294 447.578 28 449.807 28 452.558C28 455.308 30.2294 457.537 32.9796 457.537C35.7297 457.537 37.9592 455.308 37.9592 452.558Z"/><path fill="#004B10" fill-rule="evenodd" d="M564.534 379.499C561.039 383.364 558.417 387.198 557.019 389.393C556.176 390.718 554.727 391.149 553.531 390.979C552.35 390.811 551.135 390.029 550.632 388.639C547.608 380.271 543.593 375.257 539.442 372.312C535.293 369.368 530.804 368.348 526.581 368.32C522.335 368.292 518.401 369.271 515.497 370.282C514.053 370.785 512.885 371.288 512.086 371.661C511.688 371.847 511.382 372 511.182 372.104C511.116 372.138 511.062 372.166 511.02 372.189C507.296 374.903 504.758 379.313 503.132 383.304C502.324 385.287 501.772 387.091 501.423 388.395C501.249 389.046 501.126 389.569 501.048 389.923C501.009 390.1 500.982 390.234 500.964 390.321C500.956 390.364 500.949 390.396 500.946 390.415L500.942 390.433L500.942 390.434C499.81 396.664 501.216 403.026 503.011 407.96C503.9 410.405 504.864 412.444 505.603 413.867C505.972 414.577 506.283 415.131 506.498 415.501C506.606 415.686 506.69 415.825 506.744 415.914C506.744 415.915 506.744 415.914 506.744 415.914L533.935 449.008C535.811 451.292 534.187 454.73 531.231 454.73H482.721L477.311 426.363L459.855 530.625C459.277 534.082 454.252 533.91 453.911 530.422L441.002 398.469L423.311 483.748C422.659 486.893 418.189 486.952 417.454 483.826L410.606 454.73H371.505V449.73H412.19C413.582 449.73 414.791 450.688 415.11 452.043L420.251 473.886L438.776 384.586C439.474 381.22 444.364 381.482 444.699 384.903L457.417 514.908L474.224 414.52C474.777 411.218 479.503 411.165 480.13 414.453L486.857 449.73H528.057L502.679 418.843L502.598 418.716L504.707 417.373C502.598 418.716 502.598 418.715 502.597 418.714L502.596 418.712L502.585 418.696L502.561 418.656C502.54 418.623 502.511 418.577 502.476 418.518C502.404 418.4 502.302 418.232 502.177 418.015C501.925 417.583 501.575 416.96 501.166 416.172C500.349 414.599 499.29 412.359 498.312 409.669C496.372 404.334 494.666 397.003 496.023 389.539L498.463 389.982C496.023 389.539 496.023 389.538 496.023 389.537L496.024 389.536L496.024 389.531L496.027 389.518L496.034 389.478C496.041 389.445 496.05 389.399 496.061 389.34C496.085 389.224 496.119 389.058 496.165 388.848C496.257 388.429 496.397 387.833 496.593 387.103C496.983 385.645 497.598 383.636 498.502 381.418C500.282 377.048 503.309 371.551 508.234 368.034L508.344 367.955L508.462 367.888L509.687 370.068C508.462 367.888 508.463 367.888 508.464 367.887L508.468 367.885L508.476 367.88L508.502 367.866C508.523 367.855 508.551 367.839 508.587 367.82C508.658 367.781 508.758 367.728 508.886 367.662C509.141 367.53 509.507 367.347 509.971 367.13C510.899 366.697 512.225 366.127 513.853 365.56C517.094 364.432 521.616 363.287 526.614 363.32C531.637 363.353 537.183 364.579 542.336 368.234C546.988 371.535 551.154 376.7 554.343 384.381C555.921 382.088 558.125 379.132 560.825 376.146C564.551 372.025 569.339 367.715 574.85 365.07C580.42 362.396 586.834 361.384 593.521 364.112C600.122 366.804 606.584 372.977 612.697 383.775L612.772 383.907L612.831 384.048L610.522 385.006C612.831 384.048 612.832 384.05 612.832 384.051L612.833 384.054L612.836 384.062L612.844 384.08L612.865 384.133C612.882 384.176 612.904 384.233 612.93 384.303C612.982 384.444 613.052 384.641 613.133 384.89C613.296 385.388 613.504 386.098 613.708 386.997C614.117 388.794 614.514 391.356 614.5 394.501C614.472 400.817 612.786 409.406 606.36 418.786L606.354 418.795L563.495 480.271L559.393 477.411L602.235 415.96C602.237 415.957 602.239 415.954 602.241 415.951C608.05 407.468 609.476 399.878 609.5 394.479C609.512 391.765 609.169 389.585 608.833 388.106C608.665 387.366 608.498 386.804 608.379 386.439C608.328 386.28 608.285 386.159 608.255 386.078C602.468 375.91 596.767 370.836 591.633 368.742C586.558 366.672 581.643 367.355 577.014 369.577C572.327 371.827 568.048 375.614 564.534 379.499Z" clip-rule="evenodd"/><path fill="#004B10" d="M568.106 475.806C568.106 473.056 565.876 470.827 563.126 470.827C560.376 470.827 558.146 473.056 558.146 475.806C558.146 478.556 560.376 480.786 563.126 480.786C565.876 480.786 568.106 478.556 568.106 475.806Z"/><path fill="#004B10" d="M377.959 452.558C377.959 449.807 375.73 447.578 372.98 447.578C370.229 447.578 368 449.807 368 452.558C368 455.308 370.229 457.537 372.98 457.537C375.73 457.537 377.959 455.308 377.959 452.558Z"/><path fill="#004B10" fill-rule="evenodd" d="M894.534 379.499C891.039 383.364 888.417 387.198 887.019 389.393C886.176 390.718 884.727 391.149 883.531 390.979C882.35 390.811 881.135 390.029 880.632 388.639C877.608 380.271 873.593 375.257 869.442 372.312C865.293 369.368 860.804 368.348 856.581 368.32C852.335 368.292 848.401 369.271 845.497 370.282C844.053 370.785 842.885 371.288 842.086 371.661C841.688 371.847 841.382 372 841.182 372.104C841.116 372.138 841.062 372.166 841.02 372.189C837.296 374.903 834.758 379.313 833.132 383.304C832.324 385.287 831.772 387.091 831.423 388.395C831.249 389.046 831.126 389.569 831.048 389.923C831.009 390.1 830.982 390.234 830.964 390.321C830.956 390.364 830.949 390.396 830.946 390.415L830.942 390.433L830.942 390.434C829.81 396.664 831.216 403.026 833.011 407.96C833.9 410.405 834.864 412.444 835.603 413.867C835.972 414.577 836.283 415.131 836.498 415.501C836.606 415.686 836.69 415.825 836.744 415.914C836.744 415.915 836.744 415.914 836.744 415.914L863.935 449.008C865.811 451.292 864.187 454.73 861.23 454.73H812.721L807.311 426.363L789.855 530.625C789.277 534.082 784.252 533.91 783.911 530.422L771.002 398.469L753.311 483.748C752.659 486.893 748.189 486.952 747.454 483.826L740.606 454.73H701.505V449.73H742.19C743.582 449.73 744.791 450.688 745.11 452.043L750.251 473.886L768.776 384.586C769.474 381.22 774.364 381.482 774.699 384.903L787.417 514.908L804.224 414.52C804.777 411.218 809.503 411.165 810.13 414.453L816.857 449.73H858.057L832.679 418.843L832.598 418.716L834.707 417.373C832.598 418.716 832.598 418.715 832.597 418.714L832.596 418.712L832.585 418.696L832.561 418.656C832.54 418.623 832.511 418.577 832.476 418.518C832.404 418.4 832.302 418.232 832.177 418.015C831.925 417.583 831.575 416.96 831.166 416.172C830.349 414.599 829.29 412.359 828.312 409.669C826.372 404.334 824.666 397.003 826.023 389.539L828.463 389.982C826.023 389.539 826.023 389.538 826.023 389.537L826.024 389.536L826.024 389.531L826.027 389.518L826.034 389.478C826.041 389.445 826.05 389.399 826.061 389.34C826.085 389.224 826.119 389.058 826.165 388.848C826.257 388.429 826.397 387.833 826.593 387.103C826.983 385.645 827.598 383.636 828.502 381.418C830.282 377.048 833.309 371.551 838.234 368.034L838.344 367.955L838.462 367.888L839.687 370.068C838.462 367.888 838.463 367.888 838.464 367.887L838.468 367.885L838.476 367.88L838.502 367.866C838.523 367.855 838.551 367.839 838.587 367.82C838.658 367.781 838.758 367.728 838.886 367.662C839.141 367.53 839.507 367.347 839.971 367.13C840.899 366.697 842.225 366.127 843.853 365.56C847.094 364.432 851.616 363.287 856.614 363.32C861.637 363.353 867.183 364.579 872.336 368.234C876.988 371.535 881.154 376.7 884.343 384.381C885.921 382.088 888.125 379.132 890.825 376.146C894.551 372.025 899.339 367.715 904.85 365.07C910.42 362.396 916.834 361.384 923.521 364.112C930.122 366.804 936.584 372.977 942.697 383.775L942.772 383.907L942.831 384.048L940.522 385.006C942.831 384.048 942.832 384.05 942.832 384.051L942.833 384.054L942.836 384.062L942.844 384.08L942.865 384.133C942.882 384.176 942.904 384.233 942.93 384.303C942.982 384.444 943.052 384.641 943.133 384.89C943.296 385.388 943.504 386.098 943.708 386.997C944.117 388.794 944.514 391.356 944.5 394.501C944.472 400.817 942.786 409.406 936.36 418.786L936.354 418.795L893.495 480.271L889.393 477.411L932.235 415.96C932.237 415.957 932.239 415.954 932.241 415.951C938.05 407.468 939.476 399.878 939.5 394.479C939.512 391.765 939.169 389.585 938.833 388.106C938.665 387.366 938.498 386.804 938.379 386.439C938.328 386.28 938.285 386.159 938.255 386.078C932.468 375.91 926.767 370.836 921.633 368.742C916.558 366.672 911.643 367.355 907.014 369.577C902.327 371.827 898.047 375.614 894.534 379.499Z" clip-rule="evenodd"/><path fill="#004B10" d="M898.106 475.806C898.106 473.056 895.876 470.827 893.126 470.827C890.376 470.827 888.146 473.056 888.146 475.806C888.146 478.556 890.376 480.786 893.126 480.786C895.876 480.786 898.106 478.556 898.106 475.806Z"/><path fill="#004B10" d="M707.959 452.558C707.959 449.807 705.73 447.578 702.98 447.578C700.229 447.578 698 449.807 698 452.558C698 455.308 700.229 457.537 702.98 457.537C705.73 457.537 707.959 455.308 707.959 452.558Z"/><path fill="#004B10" fill-rule="evenodd" d="M1264.53 379.499C1261.04 383.364 1258.42 387.198 1257.02 389.393C1256.18 390.718 1254.73 391.149 1253.53 390.979C1252.35 390.811 1251.13 390.029 1250.63 388.639C1247.61 380.271 1243.59 375.257 1239.44 372.312C1235.29 369.368 1230.8 368.348 1226.58 368.32C1222.33 368.292 1218.4 369.271 1215.5 370.282C1214.05 370.785 1212.89 371.288 1212.09 371.661C1211.69 371.847 1211.38 372 1211.18 372.104C1211.12 372.138 1211.06 372.166 1211.02 372.189C1207.3 374.903 1204.76 379.313 1203.13 383.304C1202.32 385.287 1201.77 387.091 1201.42 388.395C1201.25 389.046 1201.13 389.569 1201.05 389.923C1201.01 390.1 1200.98 390.234 1200.96 390.321C1200.96 390.364 1200.95 390.396 1200.95 390.415L1200.94 390.433L1200.94 390.434C1199.81 396.664 1201.22 403.026 1203.01 407.96C1203.9 410.405 1204.86 412.444 1205.6 413.867C1205.97 414.577 1206.28 415.131 1206.5 415.501C1206.61 415.686 1206.69 415.825 1206.74 415.914C1206.74 415.915 1206.74 415.914 1206.74 415.914L1233.93 449.008C1235.81 451.292 1234.19 454.73 1231.23 454.73H1182.72L1177.31 426.363L1159.86 530.625C1159.28 534.082 1154.25 533.91 1153.91 530.422L1141 398.469L1123.31 483.748C1122.66 486.893 1118.19 486.952 1117.45 483.826L1110.61 454.73H1071.51V449.73H1112.19C1113.58 449.73 1114.79 450.688 1115.11 452.043L1120.25 473.886L1138.78 384.586C1139.47 381.22 1144.36 381.482 1144.7 384.903L1157.42 514.908L1174.22 414.52C1174.78 411.218 1179.5 411.165 1180.13 414.453L1186.86 449.73H1228.06L1202.68 418.843L1202.6 418.716L1204.71 417.373C1202.6 418.716 1202.6 418.715 1202.6 418.714L1202.6 418.712L1202.59 418.696L1202.56 418.656C1202.54 418.623 1202.51 418.577 1202.48 418.518C1202.4 418.4 1202.3 418.232 1202.18 418.015C1201.93 417.583 1201.58 416.96 1201.17 416.172C1200.35 414.599 1199.29 412.359 1198.31 409.669C1196.37 404.334 1194.67 397.003 1196.02 389.539L1198.46 389.982C1196.02 389.539 1196.02 389.538 1196.02 389.537L1196.02 389.536L1196.02 389.531L1196.03 389.518L1196.03 389.478C1196.04 389.445 1196.05 389.399 1196.06 389.34C1196.08 389.224 1196.12 389.058 1196.17 388.848C1196.26 388.429 1196.4 387.833 1196.59 387.103C1196.98 385.645 1197.6 383.636 1198.5 381.418C1200.28 377.048 1203.31 371.551 1208.23 368.034L1208.34 367.955L1208.46 367.888L1209.69 370.068C1208.46 367.888 1208.46 367.888 1208.46 367.887L1208.47 367.885L1208.48 367.88L1208.5 367.866C1208.52 367.855 1208.55 367.839 1208.59 367.82C1208.66 367.781 1208.76 367.728 1208.89 367.662C1209.14 367.53 1209.51 367.347 1209.97 367.13C1210.9 366.697 1212.23 366.127 1213.85 365.56C1217.09 364.432 1221.62 363.287 1226.61 363.32C1231.64 363.353 1237.18 364.579 1242.34 368.234C1246.99 371.535 1251.15 376.7 1254.34 384.381C1255.92 382.088 1258.12 379.132 1260.83 376.146C1264.55 372.025 1269.34 367.715 1274.85 365.07C1280.42 362.396 1286.83 361.384 1293.52 364.112C1300.12 366.804 1306.58 372.977 1312.7 383.775L1312.77 383.907L1312.83 384.048L1310.52 385.006C1312.83 384.048 1312.83 384.05 1312.83 384.051L1312.83 384.054L1312.84 384.062L1312.84 384.08L1312.87 384.133C1312.88 384.176 1312.9 384.233 1312.93 384.303C1312.98 384.444 1313.05 384.641 1313.13 384.89C1313.3 385.388 1313.5 386.098 1313.71 386.997C1314.12 388.794 1314.51 391.356 1314.5 394.501C1314.47 400.817 1312.79 409.406 1306.36 418.786L1306.35 418.795L1263.49 480.271L1259.39 477.411L1302.23 415.96C1302.24 415.957 1302.24 415.954 1302.24 415.951C1308.05 407.468 1309.48 399.878 1309.5 394.479C1309.51 391.765 1309.17 389.585 1308.83 388.106C1308.66 387.366 1308.5 386.804 1308.38 386.439C1308.33 386.28 1308.28 386.159 1308.26 386.078C1302.47 375.91 1296.77 370.836 1291.63 368.742C1286.56 366.672 1281.64 367.355 1277.01 369.577C1272.33 371.827 1268.05 375.614 1264.53 379.499Z" clip-rule="evenodd"/><path fill="#004B10" d="M1268.11 475.806C1268.11 473.056 1265.88 470.827 1263.13 470.827C1260.38 470.827 1258.15 473.056 1258.15 475.806C1258.15 478.556 1260.38 480.786 1263.13 480.786C1265.88 480.786 1268.11 478.556 1268.11 475.806Z"/><path fill="#004B10" d="M1077.96 452.558C1077.96 449.807 1075.73 447.578 1072.98 447.578C1070.23 447.578 1068 449.807 1068 452.558C1068 455.308 1070.23 457.537 1072.98 457.537C1075.73 457.537 1077.96 455.308 1077.96 452.558Z"/><path fill="#004B10" fill-rule="evenodd" d="M1624.53 379.499C1621.04 383.364 1618.42 387.198 1617.02 389.393C1616.18 390.718 1614.73 391.149 1613.53 390.979C1612.35 390.811 1611.13 390.029 1610.63 388.639C1607.61 380.271 1603.59 375.257 1599.44 372.312C1595.29 369.368 1590.8 368.348 1586.58 368.32C1582.33 368.292 1578.4 369.271 1575.5 370.282C1574.05 370.785 1572.89 371.288 1572.09 371.661C1571.69 371.847 1571.38 372 1571.18 372.104C1571.12 372.138 1571.06 372.166 1571.02 372.189C1567.3 374.903 1564.76 379.313 1563.13 383.304C1562.32 385.287 1561.77 387.091 1561.42 388.395C1561.25 389.046 1561.13 389.569 1561.05 389.923C1561.01 390.1 1560.98 390.234 1560.96 390.321C1560.96 390.364 1560.95 390.396 1560.95 390.415L1560.94 390.433L1560.94 390.434C1559.81 396.664 1561.22 403.026 1563.01 407.96C1563.9 410.405 1564.86 412.444 1565.6 413.867C1565.97 414.577 1566.28 415.131 1566.5 415.501C1566.61 415.686 1566.69 415.825 1566.74 415.914C1566.74 415.915 1566.74 415.914 1566.74 415.914L1593.93 449.008C1595.81 451.292 1594.19 454.73 1591.23 454.73H1542.72L1537.31 426.363L1519.86 530.625C1519.28 534.082 1514.25 533.91 1513.91 530.422L1501 398.469L1483.31 483.748C1482.66 486.893 1478.19 486.952 1477.45 483.826L1470.61 454.73H1431.51V449.73H1472.19C1473.58 449.73 1474.79 450.688 1475.11 452.043L1480.25 473.886L1498.78 384.586C1499.47 381.22 1504.36 381.482 1504.7 384.903L1517.42 514.908L1534.22 414.52C1534.78 411.218 1539.5 411.165 1540.13 414.453L1546.86 449.73H1588.06L1562.68 418.843L1562.6 418.716L1564.71 417.373C1562.6 418.716 1562.6 418.715 1562.6 418.714L1562.6 418.712L1562.59 418.696L1562.56 418.656C1562.54 418.623 1562.51 418.577 1562.48 418.518C1562.4 418.4 1562.3 418.232 1562.18 418.015C1561.93 417.583 1561.58 416.96 1561.17 416.172C1560.35 414.599 1559.29 412.359 1558.31 409.669C1556.37 404.334 1554.67 397.003 1556.02 389.539L1558.46 389.982C1556.02 389.539 1556.02 389.538 1556.02 389.537L1556.02 389.536L1556.02 389.531L1556.03 389.518L1556.03 389.478C1556.04 389.445 1556.05 389.399 1556.06 389.34C1556.08 389.224 1556.12 389.058 1556.17 388.848C1556.26 388.429 1556.4 387.833 1556.59 387.103C1556.98 385.645 1557.6 383.636 1558.5 381.418C1560.28 377.048 1563.31 371.551 1568.23 368.034L1568.34 367.955L1568.46 367.888L1569.69 370.068C1568.46 367.888 1568.46 367.888 1568.46 367.887L1568.47 367.885L1568.48 367.88L1568.5 367.866C1568.52 367.855 1568.55 367.839 1568.59 367.82C1568.66 367.781 1568.76 367.728 1568.89 367.662C1569.14 367.53 1569.51 367.347 1569.97 367.13C1570.9 366.697 1572.23 366.127 1573.85 365.56C1577.09 364.432 1581.62 363.287 1586.61 363.32C1591.64 363.353 1597.18 364.579 1602.34 368.234C1606.99 371.535 1611.15 376.7 1614.34 384.381C1615.92 382.088 1618.12 379.132 1620.83 376.146C1624.55 372.025 1629.34 367.715 1634.85 365.07C1640.42 362.396 1646.83 361.384 1653.52 364.112C1660.12 366.804 1666.58 372.977 1672.7 383.775L1672.77 383.907L1672.83 384.048L1670.52 385.006C1672.83 384.048 1672.83 384.05 1672.83 384.051L1672.83 384.054L1672.84 384.062L1672.84 384.08L1672.87 384.133C1672.88 384.176 1672.9 384.233 1672.93 384.303C1672.98 384.444 1673.05 384.641 1673.13 384.89C1673.3 385.388 1673.5 386.098 1673.71 386.997C1674.12 388.794 1674.51 391.356 1674.5 394.501C1674.47 400.817 1672.79 409.406 1666.36 418.786L1666.35 418.795L1623.49 480.271L1619.39 477.411L1662.24 415.96C1662.24 415.957 1662.24 415.954 1662.24 415.951C1668.05 407.468 1669.48 399.878 1669.5 394.479C1669.51 391.765 1669.17 389.585 1668.83 388.106C1668.66 387.366 1668.5 386.804 1668.38 386.439C1668.33 386.28 1668.29 386.159 1668.26 386.078C1662.47 375.91 1656.77 370.836 1651.63 368.742C1646.56 366.672 1641.64 367.355 1637.01 369.577C1632.33 371.827 1628.05 375.614 1624.53 379.499Z" clip-rule="evenodd"/><path fill="#004B10" d="M1628.11 475.806C1628.11 473.056 1625.88 470.827 1623.13 470.827C1620.38 470.827 1618.15 473.056 1618.15 475.806C1618.15 478.556 1620.38 480.786 1623.13 480.786C1625.88 480.786 1628.11 478.556 1628.11 475.806Z"/><path fill="#004B10" d="M1437.96 452.558C1437.96 449.807 1435.73 447.578 1432.98 447.578C1430.23 447.578 1428 449.807 1428 452.558C1428 455.308 1430.23 457.537 1432.98 457.537C1435.73 457.537 1437.96 455.308 1437.96 452.558Z"/><path fill="#004B10" fill-rule="evenodd" d="M1964.53 379.499C1961.04 383.364 1958.42 387.198 1957.02 389.393C1956.18 390.718 1954.73 391.149 1953.53 390.979C1952.35 390.811 1951.13 390.029 1950.63 388.639C1947.61 380.271 1943.59 375.257 1939.44 372.312C1935.29 369.368 1930.8 368.348 1926.58 368.32C1922.33 368.292 1918.4 369.271 1915.5 370.282C1914.05 370.785 1912.89 371.288 1912.09 371.661C1911.69 371.847 1911.38 372 1911.18 372.104C1911.12 372.138 1911.06 372.166 1911.02 372.189C1907.3 374.903 1904.76 379.313 1903.13 383.304C1902.32 385.287 1901.77 387.091 1901.42 388.395C1901.25 389.046 1901.13 389.569 1901.05 389.923C1901.01 390.1 1900.98 390.234 1900.96 390.321C1900.96 390.364 1900.95 390.396 1900.95 390.415L1900.94 390.433L1900.94 390.434C1899.81 396.664 1901.22 403.026 1903.01 407.96C1903.9 410.405 1904.86 412.444 1905.6 413.867C1905.97 414.577 1906.28 415.131 1906.5 415.501C1906.61 415.686 1906.69 415.825 1906.74 415.914C1906.74 415.915 1906.74 415.914 1906.74 415.914L1933.93 449.008C1935.81 451.292 1934.19 454.73 1931.23 454.73H1882.72L1877.31 426.363L1859.86 530.625C1859.28 534.082 1854.25 533.91 1853.91 530.422L1841 398.469L1823.31 483.748C1822.66 486.893 1818.19 486.952 1817.45 483.826L1810.61 454.73H1771.51V449.73H1812.19C1813.58 449.73 1814.79 450.688 1815.11 452.043L1820.25 473.886L1838.78 384.586C1839.47 381.22 1844.36 381.482 1844.7 384.903L1857.42 514.908L1874.22 414.52C1874.78 411.218 1879.5 411.165 1880.13 414.453L1886.86 449.73H1928.06L1902.68 418.843L1902.6 418.716L1904.71 417.373C1902.6 418.716 1902.6 418.715 1902.6 418.714L1902.6 418.712L1902.59 418.696L1902.56 418.656C1902.54 418.623 1902.51 418.577 1902.48 418.518C1902.4 418.4 1902.3 418.232 1902.18 418.015C1901.93 417.583 1901.58 416.96 1901.17 416.172C1900.35 414.599 1899.29 412.359 1898.31 409.669C1896.37 404.334 1894.67 397.003 1896.02 389.539L1898.46 389.982C1896.02 389.539 1896.02 389.538 1896.02 389.537L1896.02 389.536L1896.02 389.531L1896.03 389.518L1896.03 389.478C1896.04 389.445 1896.05 389.399 1896.06 389.34C1896.08 389.224 1896.12 389.058 1896.17 388.848C1896.26 388.429 1896.4 387.833 1896.59 387.103C1896.98 385.645 1897.6 383.636 1898.5 381.418C1900.28 377.048 1903.31 371.551 1908.23 368.034L1908.34 367.955L1908.46 367.888L1909.69 370.068C1908.46 367.888 1908.46 367.888 1908.46 367.887L1908.47 367.885L1908.48 367.88L1908.5 367.866C1908.52 367.855 1908.55 367.839 1908.59 367.82C1908.66 367.781 1908.76 367.728 1908.89 367.662C1909.14 367.53 1909.51 367.347 1909.97 367.13C1910.9 366.697 1912.23 366.127 1913.85 365.56C1917.09 364.432 1921.62 363.287 1926.61 363.32C1931.64 363.353 1937.18 364.579 1942.34 368.234C1946.99 371.535 1951.15 376.7 1954.34 384.381C1955.92 382.088 1958.12 379.132 1960.83 376.146C1964.55 372.025 1969.34 367.715 1974.85 365.07C1980.42 362.396 1986.83 361.384 1993.52 364.112C2000.12 366.804 2006.58 372.977 2012.7 383.775L2012.77 383.907L2012.83 384.048L2010.52 385.006C2012.83 384.048 2012.83 384.05 2012.83 384.051L2012.83 384.054L2012.84 384.062L2012.84 384.08L2012.87 384.133C2012.88 384.176 2012.9 384.233 2012.93 384.303C2012.98 384.444 2013.05 384.641 2013.13 384.89C2013.3 385.388 2013.5 386.098 2013.71 386.997C2014.12 388.794 2014.51 391.356 2014.5 394.501C2014.47 400.817 2012.79 409.406 2006.36 418.786L2006.35 418.795L1963.49 480.271L1959.39 477.411L2002.24 415.96C2002.24 415.957 2002.24 415.954 2002.24 415.951C2008.05 407.468 2009.48 399.878 2009.5 394.479C2009.51 391.765 2009.17 389.585 2008.83 388.106C2008.66 387.366 2008.5 386.804 2008.38 386.439C2008.33 386.28 2008.29 386.159 2008.26 386.078C2002.47 375.91 1996.77 370.836 1991.63 368.742C1986.56 366.672 1981.64 367.355 1977.01 369.577C1972.33 371.827 1968.05 375.614 1964.53 379.499Z" clip-rule="evenodd"/><path fill="#004B10" d="M1777.96 452.558C1777.96 449.807 1775.73 447.578 1772.98 447.578C1770.23 447.578 1768 449.807 1768 452.558C1768 455.308 1770.23 457.537 1772.98 457.537C1775.73 457.537 1777.96 455.308 1777.96 452.558Z"/><path fill="#015312" fill-rule="evenodd" d="M1207.08 46.0847C1179.08 61.8323 1157.58 95.2107 1152.39 103.832C1149.69 108.318 1144.83 109.632 1141.05 108.95C1137.43 108.298 1133.87 105.737 1132.47 101.53C1124.01 76.2179 1112.6 61.2436 1100.98 52.4956C1089.37 43.7665 1076.74 40.6269 1064.73 40.3955C1052.61 40.1619 1041.27 42.9073 1032.82 45.8185C1028.63 47.2624 1025.24 48.7162 1022.93 49.7915C1021.77 50.3281 1020.89 50.7675 1020.33 51.0601C1020.22 51.117 1020.12 51.1682 1020.03 51.2135C1009.9 58.6698 1002.82 70.8626 998.192 82.2196C995.897 87.8523 994.327 92.9801 993.335 96.6879C992.84 98.5357 992.494 100.015 992.275 101.007C992.166 101.503 992.089 101.877 992.042 102.113C992.018 102.23 992.002 102.314 991.993 102.361L991.987 102.392C991.987 102.393 991.987 102.395 991.986 102.396C991.986 102.397 991.986 102.399 991.986 102.4C991.985 102.401 991.985 102.402 991.985 102.404C988.821 119.827 992.743 137.78 997.877 151.897C1000.41 158.867 1003.16 164.682 1005.27 168.734C1006.32 170.756 1007.2 172.325 1007.8 173.367C1008.05 173.785 1008.25 174.118 1008.39 174.359L1089.84 273.484C1095.73 280.662 1090.63 291.467 1081.34 291.467H934.085L920.804 221.825L871.418 516.809C869.392 528.91 851.806 528.305 850.612 516.097L814.153 143.408L765.525 377.823C763.241 388.828 747.597 389.036 745.023 378.095L724.636 291.467H613.185V271.467H732.159C737.032 271.467 741.264 274.819 742.38 279.562L754.659 331.737L807.249 78.2245C809.693 66.4448 826.809 67.3616 827.981 79.335L863.534 442.774L909.84 166.19C911.775 154.636 928.315 154.447 930.51 165.957L950.632 271.467H1062.29L992.124 186.063L991.798 185.552L1000.23 180.183C991.798 185.552 991.797 185.549 991.795 185.547L991.791 185.54L991.781 185.525L991.755 185.484C991.735 185.452 991.709 185.409 991.676 185.358C991.612 185.254 991.524 185.113 991.415 184.934C991.197 184.576 990.893 184.07 990.518 183.425C989.767 182.134 988.728 180.285 987.518 177.954C985.101 173.302 981.972 166.683 979.081 158.732C973.364 143.009 968.244 121.177 972.31 98.8138L982.149 100.603C972.31 98.8138 972.31 98.8111 972.311 98.8082L972.315 98.7858L972.323 98.7432C972.329 98.71 972.337 98.6671 972.347 98.6149C972.356 98.5687 972.366 98.5152 972.378 98.4544C972.393 98.3777 972.41 98.2895 972.43 98.1902C972.501 97.8344 972.605 97.3352 972.743 96.7078C973.019 95.4538 973.435 93.6828 974.014 91.5177C975.17 87.1996 976.991 81.2495 979.67 74.6737C984.917 61.7936 993.96 45.2544 1008.89 34.5885L1009.33 34.2737L1009.8 34.0083L1014.7 42.7259C1009.8 34.0083 1009.81 34.0056 1009.81 34.0027L1009.83 33.9958L1009.86 33.9787L1009.94 33.9306C1010.01 33.8926 1010.1 33.8426 1010.22 33.7816C1010.44 33.6596 1010.76 33.4932 1011.15 33.2889C1011.94 32.8805 1013.07 32.3197 1014.49 31.6594C1017.32 30.3408 1021.36 28.6136 1026.3 26.9095C1036.12 23.5247 1049.89 20.1059 1065.11 20.3992C1080.45 20.6947 1097.39 24.7731 1113 36.5126C1125.33 45.7875 1136.31 59.461 1145.03 78.746C1155.94 63.5528 1174.39 41.5238 1197.27 28.6528C1214.18 19.1462 1234.42 14.1334 1255.91 21.5943C1277.11 28.9511 1297.46 47.7453 1316.41 81.2063L1316.71 81.7375L1316.94 82.3014L1307.7 86.1335C1316.94 82.3014 1316.94 82.3067 1316.95 82.3123L1316.95 82.3242L1316.96 82.351L1316.99 82.4165C1317.01 82.4654 1317.03 82.5249 1317.06 82.5946C1317.11 82.7342 1317.18 82.9153 1317.27 83.137C1317.43 83.5802 1317.65 84.1861 1317.89 84.9467C1318.39 86.4671 1319.02 88.6098 1319.63 91.3099C1320.86 96.707 1322.04 104.36 1322 113.734C1321.92 132.587 1316.88 158.088 1297.87 185.835L1297.84 185.869L1173.3 364.512L1156.89 353.074L1281.37 174.531C1281.38 174.519 1281.39 174.506 1281.39 174.494C1297.93 150.339 1301.93 128.83 1302 113.645C1302.03 105.997 1301.07 99.8714 1300.13 95.7461C1299.66 93.685 1299.2 92.1305 1298.88 91.1439C1298.78 90.839 1298.69 90.5888 1298.62 90.3951C1281.05 59.5851 1264.03 45.5829 1249.36 40.4883C1234.87 35.4612 1220.68 38.4336 1207.08 46.0847Z" clip-rule="evenodd"/><path fill="#015312" d="M1174.45 366.974C1174.45 358.983 1167.98 352.504 1159.99 352.504C1151.99 352.504 1145.52 358.983 1145.52 366.974C1145.52 374.965 1151.99 381.443 1159.99 381.443C1167.98 381.443 1174.45 374.965 1174.45 366.974Z"/><path fill="#015312" d="M631.939 280.419C631.939 272.428 625.461 265.95 617.469 265.95C609.478 265.95 603 272.428 603 280.419C603 288.411 609.478 294.889 617.469 294.889C625.461 294.889 631.939 288.411 631.939 280.419Z"/></g><defs><clipPath id="clip0"><rect width="1920" height="536" fill="#fff"/></clipPath></defs></svg>