<svg width="256" height="256" viewBox="0 0 256 256" fill="none" xmlns="http://www.w3.org/2000/svg">
<rect x="4" y="4" width="248" height="248" rx="56" fill="#1E9437" stroke="white" stroke-width="8"/>
<path d="M35.7388 103.159H67.4421C67.6741 103.159 67.8757 103.318 67.9288 103.544L73.4298 126.919C73.5524 127.44 74.2974 127.43 74.4061 126.906L90.0688 51.4037C90.1851 50.8427 91.0002 50.8864 91.056 51.4566L101.992 163.243C102.048 163.825 102.886 163.853 102.982 163.277L117.826 74.6177C117.918 74.0674 118.706 74.0586 118.81 74.6066L124.255 103.159H160.08C160.925 103.159 161.389 102.176 160.853 101.524L139.818 75.9228C139.818 75.9228 133.009 65.223 134.955 54.5232C134.955 54.5232 136.9 43.8234 143.709 38.9599C143.709 38.9599 167.398 25.6465 177.37 52.3445C177.675 53.162 178.841 53.3223 179.316 52.5905C184.318 44.8874 204.202 18.3195 222.498 50.6324C222.498 50.6324 227.199 61.9622 217.635 75.9228L184.151 123.952" stroke="white" stroke-width="5"/>
<circle r="4.53937" transform="matrix(1 0 0 -1 186.279 121.47)" fill="white"/>
<circle r="4.53937" transform="matrix(1 0 0 -1 37.5394 102.928)" fill="white"/>
<path d="M47.2916 183.664C49.6383 183.664 51.697 184.123 53.4676 185.04C55.2596 185.957 56.6356 187.269 57.5956 188.976C58.577 190.661 59.0676 192.624 59.0676 194.864C59.0676 197.104 58.577 199.067 57.5956 200.752C56.6356 202.416 55.2596 203.707 53.4676 204.624C51.697 205.541 49.6383 206 47.2916 206H39.4836V183.664H47.2916ZM47.1316 202.192C49.4783 202.192 51.2916 201.552 52.5716 200.272C53.8516 198.992 54.4916 197.189 54.4916 194.864C54.4916 192.539 53.8516 190.725 52.5716 189.424C51.2916 188.101 49.4783 187.44 47.1316 187.44H43.9636V202.192H47.1316ZM69.4611 191.024C70.0371 190.085 70.7838 189.349 71.7011 188.816C72.6398 188.283 73.7065 188.016 74.9011 188.016V192.72H73.7171C72.3091 192.72 71.2425 193.051 70.5171 193.712C69.8131 194.373 69.4611 195.525 69.4611 197.168V206H64.9811V188.272H69.4611V191.024ZM82.4626 206.224C81.652 206.224 80.98 205.979 80.4466 205.488C79.9346 204.976 79.6786 204.347 79.6786 203.6C79.6786 202.853 79.9346 202.235 80.4466 201.744C80.98 201.232 81.652 200.976 82.4626 200.976C83.252 200.976 83.9026 201.232 84.4146 201.744C84.9266 202.235 85.1826 202.853 85.1826 203.6C85.1826 204.347 84.9266 204.976 84.4146 205.488C83.9026 205.979 83.252 206.224 82.4626 206.224ZM99.1591 183.664C101.506 183.664 103.564 184.123 105.335 185.04C107.127 185.957 108.503 187.269 109.463 188.976C110.444 190.661 110.935 192.624 110.935 194.864C110.935 197.104 110.444 199.067 109.463 200.752C108.503 202.416 107.127 203.707 105.335 204.624C103.564 205.541 101.506 206 99.1591 206H91.3511V183.664H99.1591ZM98.9991 202.192C101.346 202.192 103.159 201.552 104.439 200.272C105.719 198.992 106.359 197.189 106.359 194.864C106.359 192.539 105.719 190.725 104.439 189.424C103.159 188.101 101.346 187.44 98.9991 187.44H95.8311V202.192H98.9991ZM119.121 186.16C118.331 186.16 117.67 185.915 117.137 185.424C116.625 184.912 116.369 184.283 116.369 183.536C116.369 182.789 116.625 182.171 117.137 181.68C117.67 181.168 118.331 180.912 119.121 180.912C119.91 180.912 120.561 181.168 121.073 181.68C121.606 182.171 121.873 182.789 121.873 183.536C121.873 184.283 121.606 184.912 121.073 185.424C120.561 185.915 119.91 186.16 119.121 186.16ZM121.329 188.272V206H116.849V188.272H121.329ZM127.163 197.072C127.163 195.28 127.515 193.691 128.219 192.304C128.944 190.917 129.915 189.851 131.131 189.104C132.368 188.357 133.744 187.984 135.259 187.984C136.582 187.984 137.734 188.251 138.715 188.784C139.718 189.317 140.518 189.989 141.115 190.8V188.272H145.627V206H141.115V203.408C140.539 204.24 139.739 204.933 138.715 205.488C137.712 206.021 136.55 206.288 135.227 206.288C133.734 206.288 132.368 205.904 131.131 205.136C129.915 204.368 128.944 203.291 128.219 201.904C127.515 200.496 127.163 198.885 127.163 197.072ZM141.115 197.136C141.115 196.048 140.902 195.12 140.475 194.352C140.048 193.563 139.472 192.965 138.747 192.56C138.022 192.133 137.243 191.92 136.411 191.92C135.579 191.92 134.811 192.123 134.107 192.528C133.403 192.933 132.827 193.531 132.379 194.32C131.952 195.088 131.739 196.005 131.739 197.072C131.739 198.139 131.952 199.077 132.379 199.888C132.827 200.677 133.403 201.285 134.107 201.712C134.832 202.139 135.6 202.352 136.411 202.352C137.243 202.352 138.022 202.149 138.747 201.744C139.472 201.317 140.048 200.72 140.475 199.952C140.902 199.163 141.115 198.224 141.115 197.136ZM159.506 187.984C160.829 187.984 161.992 188.251 162.994 188.784C163.997 189.296 164.786 189.968 165.362 190.8V188.272H169.874V206.128C169.874 207.771 169.544 209.232 168.882 210.512C168.221 211.813 167.229 212.837 165.906 213.584C164.584 214.352 162.984 214.736 161.106 214.736C158.589 214.736 156.52 214.149 154.898 212.976C153.298 211.803 152.392 210.203 152.178 208.176H156.626C156.861 208.987 157.362 209.627 158.13 210.096C158.92 210.587 159.869 210.832 160.978 210.832C162.28 210.832 163.336 210.437 164.146 209.648C164.957 208.88 165.362 207.707 165.362 206.128V203.376C164.786 204.208 163.986 204.901 162.962 205.456C161.96 206.011 160.808 206.288 159.506 206.288C158.013 206.288 156.648 205.904 155.41 205.136C154.173 204.368 153.192 203.291 152.466 201.904C151.762 200.496 151.41 198.885 151.41 197.072C151.41 195.28 151.762 193.691 152.466 192.304C153.192 190.917 154.162 189.851 155.378 189.104C156.616 188.357 157.992 187.984 159.506 187.984ZM165.362 197.136C165.362 196.048 165.149 195.12 164.722 194.352C164.296 193.563 163.72 192.965 162.994 192.56C162.269 192.133 161.49 191.92 160.658 191.92C159.826 191.92 159.058 192.123 158.354 192.528C157.65 192.933 157.074 193.531 156.626 194.32C156.2 195.088 155.986 196.005 155.986 197.072C155.986 198.139 156.2 199.077 156.626 199.888C157.074 200.677 157.65 201.285 158.354 201.712C159.08 202.139 159.848 202.352 160.658 202.352C161.49 202.352 162.269 202.149 162.994 201.744C163.72 201.317 164.296 200.72 164.722 199.952C165.149 199.163 165.362 198.224 165.362 197.136ZM186.634 188.016C188.746 188.016 190.453 188.688 191.754 190.032C193.055 191.355 193.706 193.211 193.706 195.6V206H189.226V196.208C189.226 194.8 188.874 193.723 188.17 192.976C187.466 192.208 186.506 191.824 185.29 191.824C184.053 191.824 183.071 192.208 182.346 192.976C181.642 193.723 181.29 194.8 181.29 196.208V206H176.81V188.272H181.29V190.48C181.887 189.712 182.645 189.115 183.562 188.688C184.501 188.24 185.525 188.016 186.634 188.016ZM208.398 206.288C206.691 206.288 205.155 205.915 203.79 205.168C202.425 204.4 201.347 203.323 200.558 201.936C199.79 200.549 199.406 198.949 199.406 197.136C199.406 195.323 199.801 193.723 200.59 192.336C201.401 190.949 202.499 189.883 203.886 189.136C205.273 188.368 206.819 187.984 208.526 187.984C210.233 187.984 211.779 188.368 213.166 189.136C214.553 189.883 215.641 190.949 216.43 192.336C217.241 193.723 217.646 195.323 217.646 197.136C217.646 198.949 217.23 200.549 216.398 201.936C215.587 203.323 214.478 204.4 213.07 205.168C211.683 205.915 210.126 206.288 208.398 206.288ZM208.398 202.384C209.209 202.384 209.966 202.192 210.67 201.808C211.395 201.403 211.971 200.805 212.398 200.016C212.825 199.227 213.038 198.267 213.038 197.136C213.038 195.451 212.59 194.16 211.694 193.264C210.819 192.347 209.742 191.888 208.462 191.888C207.182 191.888 206.105 192.347 205.23 193.264C204.377 194.16 203.95 195.451 203.95 197.136C203.95 198.821 204.366 200.123 205.198 201.04C206.051 201.936 207.118 202.384 208.398 202.384Z" fill="white"/>
<path d="M227.143 180.321H223.286V176.786C223.286 176.352 222.902 176 222.429 176H221.571C221.098 176 220.714 176.352 220.714 176.786V180.321H216.857C216.384 180.321 216 180.673 216 181.107V181.893C216 182.327 216.384 182.679 216.857 182.679H220.714V186.214C220.714 186.648 221.098 187 221.571 187H222.429C222.902 187 223.286 186.648 223.286 186.214V182.679H227.143C227.616 182.679 228 182.327 228 181.893V181.107C228 180.673 227.616 180.321 227.143 180.321Z" fill="white"/>
</svg>
