<svg width="256" height="256" viewBox="0 0 256 256" fill="none" xmlns="http://www.w3.org/2000/svg">
<rect x="3.5" y="3.5" width="249" height="249" rx="124.5" fill="#1E9437" stroke="white" stroke-width="7"/>
<path d="M32.8156 144.07H65.4191C65.6511 144.07 65.8526 144.23 65.9058 144.455L71.5781 168.558C71.7007 169.079 72.4457 169.069 72.5544 168.545L88.6878 90.7735C88.8042 90.2125 89.6193 90.2562 89.675 90.8264L100.937 205.945C100.994 206.527 101.831 206.555 101.927 205.979L117.218 114.651C117.31 114.101 118.097 114.092 118.202 114.64L123.814 144.07H160.703C161.548 144.07 162.012 143.088 161.476 142.435L139.814 116.07C139.814 116.07 132.814 105.071 134.814 94.0707C134.814 94.0707 136.814 83.0708 143.814 78.0709C143.814 78.0709 168.201 64.3647 178.441 91.8897C178.745 92.7076 179.911 92.8677 180.386 92.1353C185.472 84.2842 205.962 56.7792 224.813 90.0707C224.813 90.0707 229.645 101.718 219.813 116.07L185.39 165.446" stroke="white" stroke-width="5"/>
<circle r="4" transform="matrix(1 0 0 -1 185.911 163.561)" fill="white"/>
<circle r="4" transform="matrix(1 0 0 -1 34 144.333)" fill="white"/>
</svg>
